<?xml version="1.0" encoding="UTF-8"?>
<svg width="50px" height="99px" viewBox="0 0 50 99" version="1.1" xmlns="http://www.w3.org/2000/svg" xmlns:xlink="http://www.w3.org/1999/xlink">
    <!-- Generator: Sketch 43.2 (39069) - http://www.bohemiancoding.com/sketch -->
    <title>Logo</title>
    <desc>Created with Sketch.</desc>
    <defs></defs>
    <g id="Page-1" stroke="none" stroke-width="1" fill="none" fill-rule="evenodd">
        <g id="Logo" fill-rule="nonzero">
            <path d="M46.5,58.2 C46.5,58.2 49,55.2 48.9,49.6 C48.8,44.1 45.1,41 44.7,40.9 C44.7,40.9 49.6,36.1 49.4,31.1 C49.2,26.1 46.6,24.5 46.6,24.5 C46.6,24.5 48.2,22.4 46.2,21 C45.3,20.4 44.3,20 43.4,19.8 C44.3,20.2 44.9,20.6 45.2,20.9 C46.1,21.6 46.1,22.3 45.9,23.2 C45.7,24.1 44,25.6 44,25.6 C44,25.6 41.2,28.2 41,28.4 C40.7,28.6 40,28.7 39.7,28.5 C39.4,28.3 39.9,27.9 39.4,27.5 C38.9,27.1 37.3,28.2 36.7,28.9 C36.1,29.6 36.4,30.2 36.6,30.8 C36.8,31.4 37.4,32.6 37.5,33.4 C37.7,34.2 37.5,34.8 36.7,35.2 C36,35.6 34.8,35.2 34.2,34.9 C33.6,34.7 31.7,33 31.3,32.7 C30.8,32.4 30.8,32.7 30.6,33 C30.4,33.2 30.4,36.5 30.3,36.9 C30.2,37.4 28.6,38.2 27.1,38.2 C25.6,38.2 23.5,36.7 23.5,36.7 C22.5,36.7 21.7,38.8 21.4,40.6 C21.2,42.5 20.8,43.7 20.6,44.3 C20.3,45 19,46.2 19,46.2 C19,47.5 18.4,50 18,50.9 C17.6,51.8 17.3,54.4 17.2,55.7 C17.1,57 17.4,56.9 17.5,57.2 C17.7,57.4 18.9,57.2 21.3,57.3 C23.7,57.4 23.4,58.2 23.2,58.4 C23,58.6 22.7,58.3 21.9,58 C21.1,57.8 21.3,58.2 21.3,58.2 C24.2,59 25.3,60 25.5,60.5 C25.7,61 25.1,60.7 25.1,60.7 C25.1,60.7 21.5,59.1 20.9,59 C20.4,58.9 20.4,59.2 20.4,59.2 C21.4,59.4 24.6,60.6 25.1,61 C25.7,61.3 25.9,61.6 25.7,62 C25.4,62.4 24.9,62 24.9,62 C24.7,61.6 23.8,61.2 22,60.6 C20.2,60 20,60.4 20,60.4 C24.2,60.9 24.8,62.3 24.6,62.7 C24.4,63.1 23.3,62.5 23.3,62.5 C22.1,61.9 20.6,61.5 20.6,61.5 C20.9,61.9 22.5,62.5 23,62.7 C23.5,62.9 23.2,63.2 23.2,63.2 C18.6,63.5 14.3,59.8 13.7,59 C13.1,58.2 13.3,57 13.3,57 C13.3,57 14.1,50.2 13.8,47.2 C13.8,45.9 13.7,43.3 13.7,43.3 C13.7,43.3 13.6,42.3 14.1,42.2 C14.6,42.1 14.6,42.7 14.6,43.2 C14.6,43.7 15,44.1 15.4,44.2 C15.8,44.2 15.4,43.2 15.4,43.2 C15.5,40.6 13.9,41.2 14,37.2 C14.1,33.2 16.6,30.6 17.5,29.9 C18.4,29.2 20.3,28.9 20.7,28.9 C21.2,28.9 21.5,29.3 21.8,29.2 C22.2,29.1 22,28.3 22.7,28 C23.5,27.6 24.8,28.7 24.9,28.9 C25.1,29.1 25.3,29.1 25.4,28.9 C25.6,28.7 24.8,27.6 25.3,27.2 C25.7,26.8 27,28.4 27,28.4 C27,28.4 27,26.6 27.3,26.3 C27.7,26 28.3,27.2 28.5,27.7 C28.7,28.1 29,27.5 29.7,27.1 C30.4,26.6 31.7,27 33.1,27.1 C34.5,27.2 34.5,27.2 34.6,27.1 C34.7,27 34.1,27 33.3,26.7 C32.5,26.4 33.3,25.7 33.3,25.7 C33.6,24.8 37.3,24.5 38.3,25.2 C39.3,25.8 40.9,25.6 40.9,25.6 C44.5,24.3 43.6,24 43.6,24 C43.6,24 42.6,24.4 40.3,24.2 C38,24 37.5,23 37.5,23 C43.8,23.2 41.8,22.9 41.8,22.9 C40.1,22.7 37.4,22 37.4,22 C37.4,22 34.2,21.1 34,20.8 C33.7,20.5 33.2,18.5 34,18.4 C34.8,18.3 34.8,19.6 34.8,20 C34.8,20.4 35.1,20.4 35.1,20.4 C35.3,20 36.9,19.3 36.9,19.3 C38.7,19.2 40.1,19.3 41.3,19.6 L41.3,19.2 L39.3,18.8 C39.3,18.8 39.6,14.8 39.6,13.3 C39.5,11.8 38.7,10.3 37.7,8.8 C36.7,7.3 34.1,5.1 33.7,5.1 C33.3,5.1 33.4,5.6 33.4,5.6 C38.6,9.3 38.7,13 38.7,13.8 C38.7,14.6 38.4,18.6 38.4,18.6 C38.4,18.6 36.1,18.4 35.8,18.4 C35.5,18.3 34.2,16.7 33.7,16.7 C33.2,16.7 33.1,16.5 33.1,16.5 C33.8,11.6 30.5,9.6 30.1,9.5 C29.7,9.4 29.9,9.9 29.9,9.9 C29.9,9.9 31.5,11.7 32.1,13.1 C32.6,14.6 32.2,16.3 32.2,16.4 C32.2,16.5 30.8,16.8 30.2,16.9 C29.5,17 29.8,17 29.7,15.9 C29.6,14.9 29.1,14.6 28.9,14.1 C28.7,13.6 28,13.8 28,13.8 C28,12 28.3,12.3 28.3,12.3 C30.1,12.8 30,15.2 30.1,15.6 C30.2,16.1 30.7,16 30.7,16 C30.8,14 30.2,13 29.9,12.3 C29.6,11.6 28.6,11.7 28.6,11.7 C28.6,11.7 29.1,10 28.6,9.7 C28.2,9.4 27.5,9.6 27.4,9.6 C27.4,9.5 27.6,8.9 27,8.6 C26.4,8.2 25.6,8.7 25.6,8.7 C24.4,6.6 22.8,8.3 22.8,8.3 C22.8,8.3 22.9,8.1 22.1,8 C21.3,7.9 20.2,9.3 19.7,10.6 C19.2,11.9 20,13.6 20,13.6 C17.9,13.8 17.9,16.3 17.9,17.3 C17.9,18.3 18.2,19.1 18.2,19.1 C17.7,19.4 18,20.2 18,21 C18.1,21.8 19.9,26.6 19.9,26.6 C16.2,26.1 12.6,21 12.5,20.6 C12.4,20.3 12,19.9 11.7,19.8 C11.3,19.7 11.5,20.6 11.5,20.6 C14.1,26.2 20.1,27.6 20.6,27.7 C21.1,27.8 20.8,28 20.8,28 C19.5,28 17,29.5 17,29.5 C17,29.5 13.1,27.7 10.9,24.3 C8.7,20.9 8.4,18.3 9.3,13 C10.2,7.7 17.5,4 17.5,4 L17.5,3.5 C15.7,3.4 11.8,7.2 11.8,7.2 C7.5,11.7 7.3,17.1 8.4,21.5 C9.5,25.9 16.2,29.9 16.2,29.9 L15.4,30.7 C15.4,30.7 13.4,30 9.9,26.3 C8.1,24.4 6.9,21.9 6.5,19.1 C6.6,20.2 6.8,21.2 7,22.1 C8.2,26.4 13.2,30.3 15.2,31.3 C15.2,31.3 10.9,35.8 13.6,41.6 C13.6,41.6 6.7,45.1 6.9,52.8 C7.1,60.5 12,66.1 13.7,68.7 C13.7,68.7 13.9,69.4 13.7,69.7 C13.7,69.7 13.7,69.7 13.6,69.7 C13.8,70.1 13.2,70.7 13.2,70.7 C11.1,69.5 8.6,70.4 8.4,70.5 C8.1,70.6 7.9,70.5 7.9,70.5 C7.9,70.2 8.1,70 8.5,69.8 C6.8,70 5,70.4 4,71.3 C1.3,73.5 -0.9,76.9 1.8,80.8 C4.3,83.4 7.6,83.1 7.6,83.1 C7.6,83.1 9.6,82.9 9.6,83.3 C9.6,83.7 9.9,83.6 9.4,85.2 C8.9,86.7 8.2,89.3 8,90.1 C7.9,91 7,93 4.7,94.9 C4.7,94.9 2.9,96.6 4.1,97.5 C5.2,98.3 6.1,98.3 7.6,98.1 C9.1,97.9 9.2,98 10,98.2 C10.8,98.5 11.6,98.3 11.6,97.6 C11.6,96.9 10.7,95.1 11.1,94.2 C11.6,93.4 17.4,84.3 17.4,84.3 C17.4,84.3 20.4,84.6 22.8,84 C25.2,83.3 27.6,81.2 27.6,81.2 C27.6,81.2 27.2,86.7 27.4,89 C27.6,91.3 27.2,92.7 26.6,93.6 C26.1,94.4 26.6,96.6 27.7,96.4 C29,96.3 30.1,96.4 31.9,95.9 C33.6,95.8 33.6,95.9 36.5,96.4 C40.1,97 40.8,96.6 41.8,95.9 C41.8,95.9 42.8,95.1 41.4,94.4 C41.3,94.3 41.1,94.3 41,94.2 L41,94.2 C41,94.8 36.7,94.7 36.7,94.7 C36.7,94.7 35.2,93.3 33.1,93.9 C30.9,94.4 30.5,94 30.1,93.9 C29.7,93.8 29.9,92.7 29.8,92.4 C29.7,92.1 29,92.7 28.7,91.7 C28.3,90.7 28,84.5 29.4,81.7 C30.8,78.9 35.2,78.8 35.2,78.8 C35.6,78.8 34,82.6 32.9,85.4 C31.8,88.2 32.9,90.4 33.6,90.8 C34.7,91.4 35.7,92.5 37.5,93 C37.9,93.1 38.4,93.2 38.7,93.3 C36.7,92.6 34.5,91.8 33.8,90.3 C32.7,88 34.5,83 35.4,81.3 C35.4,81.3 37,84.6 39.9,85.1 C42.8,85.6 44.9,84.9 45.3,84.4 C45.7,83.9 47.5,82.5 48.1,79.8 C48.7,77.1 47.9,75.6 47.2,74.6 C46.5,73.6 42.8,70.2 41.3,70.7 C41.3,70.7 40.8,68.2 42.3,65.2 C43.8,62.3 46.5,58.2 46.5,58.2 Z M35.7,22.5 C36.2,21.9 36.5,22.3 36.5,22.3 L38.3,23.9 C32.5,23.8 30.8,25.5 30.8,25.5 C30.6,25.7 30.2,25.1 30.2,24.2 C30.2,23.3 30.6,22.7 31,23.2 C31.5,23.7 32.4,24.1 33.8,24 C35.1,23.9 35.2,23.1 35.7,22.5 Z M34.4,21 C34.4,21 35.2,21.4 34.9,22.2 C34.5,23 33.3,23.6 32.4,23.7 C31.6,23.8 31.1,22.9 31.2,22.6 C31.3,22.2 31.6,21.1 31.9,21.4 C32.2,21.7 32.2,22.1 32.3,22.5 C32.4,22.9 32.6,23.6 33.1,23.1 C34.1,22.2 34.1,20.7 34.4,21 Z M30.7,20.2 L32.7,20.2 C33,20.7 31.1,21.2 30.7,20.2 Z M30.9,17.1 C33,16.8 33,17.5 32.8,17.7 C32.6,18 31,17.9 30.7,17.5 C30.4,17.1 30.9,17.1 30.9,17.1 Z M30.9,18.6 C33.5,18.3 33.3,19.1 32.8,19.2 C31.5,19.1 30.4,19.3 30.4,18.8 C30.4,18.4 30.9,18.6 30.9,18.6 Z M29.5,22.4 C29.6,21.8 29.5,21.7 30,21.7 C30,21.7 29.5,21.1 29.7,20.6 C29.9,20.1 29.8,20.2 30.2,20.1 C29.9,20.1 28.9,18.8 30.1,18.7 C30.1,18.7 29.6,19.6 30.6,20 C30.5,20 30.3,20 30.2,20.2 C30.1,20.4 30.3,21.4 30.4,21.6 C30.4,21.6 30.9,21.8 31.2,21.8 L31.2,22.1 L29.9,22 C29.9,22 29.9,22.6 29.7,22.7 C29.5,22.9 29.7,23.9 28.9,24.1 C28.9,24.1 28.5,23.9 28.9,23.6 C29.3,23.3 29.4,23 29.5,22.4 Z M27.7,11.8 C28,9.9 28.3,9.8 28.8,9.8 C29.3,9.9 28.7,11.5 28.6,11.9 C28.5,12.4 27.9,12.7 27.7,12.6 C27.4,12.5 27.7,11.8 27.7,11.8 Z M26.2,9.8 C26.5,9.1 26.9,8.8 27.3,9 C27.7,9.2 27.5,10.9 27.5,11.4 C27.4,11.9 27.1,12.1 27,12.2 C26.9,12.3 25.9,11.5 25.9,11.5 C26.1,11.3 26,10.5 26.2,9.8 Z M23.6,9.1 C24.9,7 25.8,8.6 25.8,8.6 C25.8,8.6 25.9,10.8 25.8,11.1 C25.7,11.3 25.5,11.6 25.5,11.6 L23.5,11.5 C23.4,11 23.6,9.1 23.6,9.1 Z M25.5,11.9 C26.9,12.2 28.3,13.5 28.2,13.8 C28.1,14.1 27.6,14 27.2,14 C26.8,14 26.6,13.5 25.4,13.1 C24.2,12.7 20.7,13.1 20.7,13.1 C20.3,13 20,12.5 20.6,12.1 C21,11.7 24.1,11.7 25.5,11.9 Z M21.9,8.6 C22.7,7.7 23.1,8.8 23.1,8.8 L23,11.6 L21.5,11.6 C21.6,11.6 21.2,9.5 21.9,8.6 Z M21.2,9.4 L21.3,11.8 C21.3,11.8 20.1,12.1 20.1,11.6 C20,11 20,9.6 21.2,9.4 Z M20.1,14.1 C21.9,13.1 22.3,13.7 22.3,13.7 C22,14.3 22.1,16.8 22.1,17.3 C22.1,17.8 22.3,17.7 22.3,17.7 C23,13.8 23.6,13.8 24.5,13.4 C25.4,13.1 26.9,14.3 27.8,14.9 C28.7,15.5 28.9,17.4 28.9,18 C28.9,18.5 28.3,21.9 28.3,21.9 C26.8,22.1 27.4,23.5 27.2,24.4 C27,25.3 26.4,25.4 26.4,25.4 C26.5,23 25.9,22.1 25.4,21.6 C24.9,21.1 24.1,20.9 24.1,20.9 C23.6,21 24.6,21.4 24.7,21.6 C24.8,21.8 24.7,22.1 24.5,22.2 C24.3,22.3 21.2,22.2 21.1,22 C21,21.8 21.8,20.7 21.9,20.5 C22,20.2 21.8,19.4 22.1,19.3 C22.4,19.2 22.6,19.6 22.9,20.2 C23.2,20.8 23.4,20.6 23.4,20.3 C23.4,20 23.5,19.9 23.5,19.9 C24.3,20.6 25.4,20.4 26,20.2 C26.6,20 26.8,19.8 26.8,19.7 C26.8,19.6 26.5,19.7 26.4,19.8 C26.3,19.8 25.5,20 25.4,19.9 C25.3,19.8 25.3,19.7 26.2,19.6 C27.2,19.4 26.8,18.7 26.8,18.7 C26.5,18.7 25.7,19 25.2,19.1 C24.7,19.2 24.5,19.2 24.5,19 C24.5,18.8 26.8,18.2 27.3,18.1 C27.8,18 27.7,17.8 27.7,17.8 C26.6,17.5 25.9,17.9 25.3,18.2 C24.7,18.4 24.3,18.8 23.9,18.7 C23.5,18.7 23.7,18.4 23.7,18.4 C25.1,17.7 25.3,17 25.7,16.4 C26,15.8 26.5,14.7 26.1,14.4 C25.7,14.1 25.5,15.4 25.5,15.7 C25.5,16 25.1,17.3 24,17.8 C22.9,18.4 22.6,18.1 22.1,18.1 C21.6,18.1 20.8,17 20.6,16.5 C20.4,16 20.4,14.7 20.4,14.7 C20.1,14.5 19.9,14.8 19.9,15.7 C19.8,16.6 20.9,17.7 21.1,18.2 C21.3,18.7 21,18.5 20.9,18.4 C20.8,18.4 20.4,17.6 19.8,17.6 C19.2,17.5 18.7,17.6 18.7,17.6 C18.7,17.6 18.3,15.2 20.1,14.1 Z M19.7,23.7 C19.3,23.9 19.4,23 19.2,22.4 C19.1,21.8 18.6,22 18.6,20.6 C18.6,19.2 18.9,18.4 19.3,18.2 C19.7,18 20.5,18.8 20.5,18.9 C20.5,19 19.5,18.9 19.5,18.9 C19.5,18.9 20.2,19.6 20.3,19.7 C20.4,19.8 20.4,20.4 20.1,20 C19.8,19.6 19.4,19.5 19.2,19.6 C19,19.7 20,20.8 20.5,20.9 C21,21 20.7,20.7 21.1,20.5 C21.5,20.4 21.4,20.7 21.4,20.7 C21.1,20.9 20.8,21.6 20.3,22.2 C19.7,22.6 19.7,23.7 19.7,23.7 Z M20.8,26.6 C20.5,26.1 20.2,23.4 20.7,22.8 C21.2,22.2 21.9,22.4 22,22.7 C22.2,23 22.1,23.1 22.6,23 C22.6,23 23.2,22.2 24.3,22.7 C25.3,23.2 25.9,24.1 25.6,25.6 C25.3,27.1 23.7,27.2 22.8,26.8 C22.8,26.8 22.6,26.9 22.4,27 C22.2,27.2 21.1,27.2 20.8,26.6 Z M43.2,55 C42.8,55.5 42.7,53.5 41.5,51.6 C40.3,49.6 39.4,48.9 39.4,48.9 C39.8,46.3 38.7,45.9 38.5,45.3 C38.3,44.7 38.1,43.2 38.5,43.2 C39,43.2 42.3,42.5 43.8,46.4 C44.6,51 43.2,55 43.2,55 Z M39.5,41.5 C39.5,41.5 39.2,42.8 39,42.5 C38.8,42.4 39.5,41.3 39.5,41.5 Z M40.6,41.3 C40.6,41.3 40,42.6 39.9,42.6 C39.8,42.5 40.2,41.1 40.6,41.3 Z M41.7,39.5 C41.7,39.5 41,40.6 40.9,40.6 C40.7,40.6 40.9,39.7 41.2,39.4 C41.5,39 42,38.9 41.7,39.5 Z M42,40.2 C42.4,40.1 41.8,41.3 41.5,41 C41.2,40.7 42,40.2 42,40.2 Z M41.3,41.3 C41.5,41.1 41.6,41.5 41.3,42.2 C41,42.9 40.8,42.7 40.6,42.3 C40.4,41.9 41.3,41.3 41.3,41.3 Z M45.4,58.1 C45.4,58.1 44.7,56.8 44.8,56.2 C44.9,55.6 45.2,55.5 45.2,55.5 C45.2,55.5 45.5,56.3 45.6,57.1 C45.7,57.9 45.4,58.1 45.4,58.1 Z M45.9,44.7 C48.3,48.3 47.7,51.5 47.5,52.3 C47.3,53.1 46,56.6 46,56.6 C45.2,55.1 45.8,53.9 45.8,53.9 C46.6,51.7 46.6,50.4 46.4,50 C46.3,49.7 46.3,50.7 45.8,52.7 C45.3,54.7 44.9,55.3 44.5,55.4 C44,55.4 44.5,53.4 44.5,53.4 C45.6,49.9 45.1,49.5 44.8,46.6 C44.6,43.7 42.3,42.9 41.9,42.9 C41.5,42.9 41.4,42.3 41.9,41.8 C42.6,41.3 43.5,41.1 45.9,44.7 Z M44.8,25.7 C45,25.7 45.8,25.8 46,27.3 C46.3,28.8 46.3,35.8 42.9,38.8 C42.9,38.8 42.9,39.2 43.4,38.8 C43.9,38.4 45.1,37.8 46.1,34.9 C47.1,32 47.5,26.7 45.5,25.1 C45.5,25.1 45.6,24.4 46.2,24.7 C46.8,24.9 48.9,27.8 48.5,29.9 C48.1,32 47.9,36.7 43.8,39.9 C43.8,39.9 42,38.7 40.8,38.5 C40.8,38.5 40.6,38.3 41.2,38 C41.8,37.6 44.3,35 45.1,31.8 C45.9,28.6 44.6,27.1 43.8,27.1 C43.8,27 44.6,25.7 44.8,25.7 Z M37.7,30.9 C37.7,30.9 40.7,30.5 43.4,27.5 C43.4,27.5 46.1,27.9 43.6,33.4 C41.5,37.3 38.8,38.4 38.6,38.1 C38.4,37.8 38.3,37.6 38.6,37 C39,36.4 39.2,32.1 37.7,30.9 Z M38.1,46.4 C38.8,46.3 38.6,47.9 38.6,48.2 C38.5,48.6 36.7,50.1 36.6,49.9 C36.5,49.6 36.8,49 36.8,49 C37.8,47.9 37.3,47.5 37.3,47.5 C37,48.3 34.5,50.3 34.1,50.4 C33.8,50.6 32.1,51.1 31.9,50.8 C31.7,50.5 32.4,49.7 33.1,49.4 C33.8,49 33.4,49.1 33.4,49.1 C30.1,49.7 30.3,51.4 30.3,51.4 C27.3,51.7 25.4,51.9 26.4,50.7 C27.4,49.5 30.8,48.6 31,48.5 C36,47.9 36.1,47.2 36.8,46.8 C37.6,46.3 38.1,46.4 38.1,46.4 Z M31,48.1 C31.4,39.6 36.8,41.5 36.8,41.5 C37.3,41.8 37.4,45.5 37.4,45.5 C37.3,46.4 35.5,47.4 34.5,47.6 C33.6,47.9 31,48.1 31,48.1 Z M35,36.1 C36.2,34.7 36.9,36.2 36.9,36.2 C37.1,36.6 37.6,38.3 37.6,38.8 C37.6,39.3 37.6,40.2 36.8,40.6 C36,41 35.4,40.1 35,39.5 C34.6,38.9 33.8,37.4 35,36.1 Z M31.7,34.3 C31.8,34.1 32.2,34.8 32.5,35.1 C32.8,35.4 33.9,35.5 34,35.9 C34.1,36.3 34,37.6 33.4,38 C32.7,38.4 32.2,37.6 31.6,36.4 C31.1,35.3 31.7,34.3 31.7,34.3 Z M29,38.8 C29.1,38.5 30.2,37.5 30.2,37.5 C30.7,37 31.4,38.4 32,38.5 C32.6,38.6 33.8,39.3 33.7,40.4 C33.5,41.9 32.9,42.1 32.3,42.3 C31.7,42.5 30.6,42.3 30.6,42.3 C30.6,42.3 29.8,41 29.4,40.5 C29,39.8 28.9,39.1 29,38.8 Z M25.9,39.2 C25.9,39.2 27.4,39 27.6,39.2 C27.8,39.4 28.3,42.8 30.7,43.3 C30.7,43.3 29,44.3 29.2,47.7 C29.2,47.7 26.1,47.8 26.7,43.6 C26.7,43.6 25.2,42.5 25.9,39.2 Z M22.9,51.3 C22.9,51.3 21.1,51.9 19.4,56.3 C19.4,56.3 18.6,56.6 18.2,56.4 C17.8,56.3 18.8,52.5 19.1,51.9 C19.3,51.3 19.9,48.7 20.1,47.7 C20.3,46.7 21.8,45 22,43.8 C22,43.8 22.6,44.4 23.5,45 C24.4,45.6 25.4,46.4 25.5,47.7 C25.4,47.8 22.8,48.2 22.9,51.3 Z M26.6,61.6 L26.1,60.9 L26.1,59.9 C26.1,59.4 24,58.5 24,58.5 C24,54.4 26.7,52.2 26.7,52.2 C26.7,52.2 29.3,52.6 32.4,52 C35.4,51.4 36.8,50.3 37.7,49.9 C38.6,49.5 39.1,49.4 39.3,49.5 C39.5,49.6 41.3,52.5 41.9,53.6 C42.4,54.6 43,57.1 42.7,57.9 C42.3,58.8 41.8,58.6 41.5,58.7 C41.2,58.8 41.1,57.7 41,56.3 C40.9,54.9 40.1,52.7 40.1,52.7 C39.6,53.3 41.6,59.1 40.7,59.8 C39.8,60.4 39.3,55.1 39,53.7 C38.7,52.3 38.5,52.7 38.5,52.7 C38.7,53.4 39.1,60.2 38.9,60.8 C38.8,61.4 37.9,61.8 37,61.9 C36.2,62 36.1,60.2 36.3,58 C36.5,55.8 35.7,52.9 35.6,52.7 C35.4,52.5 35.5,53.1 35.4,53.9 C35.4,54.6 35.8,58.8 35.8,59.9 C35.8,61 35.5,62 35.1,62.2 C34.7,62.4 32.4,62.9 31.7,62.9 C31,62.9 30.8,62.5 30.7,61.9 C30.6,61.3 31.1,58.7 31.5,57.2 C32,55.7 31.9,54.1 31.7,53.9 C31.5,53.7 30.6,59.1 30.3,60.2 C29.9,61.3 28.7,63.1 27.1,63.3 C25.5,63.5 24.9,63.1 24.9,63.1 C27,62.6 26.6,61.6 26.6,61.6 Z M7.8,53.5 C7.3,46.2 13.2,42.4 13.2,42.4 L13.1,44.4 C8.3,48.6 9.8,53.8 9.8,53.8 C11,47.1 13.1,45.5 13.1,45.5 L13,48.3 C10.3,50.8 11,53.6 11.4,56.2 C11.8,58.8 15.8,62.2 15.8,62.2 C15.5,62.4 14.9,63.5 14.9,63.5 C10.9,59.8 10,55 10,55 C9.4,56.4 10.1,57.6 11,59.6 C11.8,61.6 14.8,64.4 14.8,64.4 L14.2,67.4 C13.8,66.3 8.4,60.7 7.8,53.5 Z M13.1,49.4 L12.7,57.1 C10.3,52.2 13.1,49.4 13.1,49.4 Z M8,71.4 C11.3,69.6 13.4,71.1 13.4,71.2 C13.4,71.3 12.6,73.1 12.6,73.1 C9,71.2 5.3,74.2 5.3,74.2 C5.1,73.7 4.7,73.2 8,71.4 Z M5.4,81.5 C4.6,81.2 1.2,79.6 1.5,75.8 C1.8,72.1 5.4,70.8 5.4,71.2 C5.4,71.2 3.8,73.9 4.2,75.2 C4.6,76.5 5.2,78.4 7.3,80.3 C7.3,80.3 4.9,80.7 4.1,79.1 C3.2,77.5 3.9,76.3 3.6,76.3 C3.3,76.3 2.6,76.4 2.9,78 C3.2,79.6 4.3,80.3 5.7,80.7 C7.1,81.1 8.9,80.8 8.7,81.4 C8.5,82 6.2,81.8 5.4,81.5 Z M6.3,77.9 C4.5,76.6 6,74.8 6,74.8 C7.3,73.5 10.2,73.1 11.5,74.1 C12.8,75.2 11.5,77 10.6,77.8 C9.8,78.7 8.1,79.2 6.3,77.9 Z M15,85.8 C14.7,87.1 12,90.2 11.3,91.1 C10.6,92 10,93 10.4,94.7 C10.8,96.1 10.8,96.6 10,96.7 C9.5,96.8 9.6,95.8 9.2,95.7 C8.8,95.6 9,95.9 8.7,96 C8.4,96.1 6.2,96.4 6.1,95.4 C6,94.4 6.7,93.7 7.1,93.5 C7.1,93.5 8.1,93 8.3,92.3 C8.5,91.6 8.3,89.8 9.2,88.3 C10.1,86.8 11.4,84.1 13.7,83.6 C15.7,83.2 15.2,84.9 15,85.8 Z M21.4,82.6 C18.7,83.4 16.3,82.9 13.3,82.8 C13.3,82.8 10.4,83.1 10.5,81.9 C10.6,80.7 11.2,79.9 11.7,78.4 C12.2,76.9 15.1,68.4 15.4,67.4 C15.7,66.4 16.2,64.8 16.6,64.4 C16.6,64.4 17,63.6 18.1,63.6 C19.2,63.6 19.6,64.3 21,64.3 C22.4,64.3 24.2,63.7 24.3,63.8 C24.4,64 22,66.9 20.3,66.7 C18.6,66.5 19,64 18.8,64 C18.6,64 17.6,63.6 17.4,66 C17.2,68.4 19.3,68.3 20,68.1 C20.7,67.9 22.1,67.2 23,66.3 C23.9,65.4 26.3,63.9 26.4,64.2 C26.5,64.5 24.9,66 24.4,66.8 C23.9,67.6 22.4,68.6 22.4,68.9 C22.4,69.2 23.4,68.6 23.9,68.2 C24.4,67.8 27.7,64.1 28.9,63.8 C30.1,63.6 30.9,63.5 30.8,64.3 C30.4,68 23.2,76.2 19.5,78.2 C19.5,78.2 19.2,78.5 19.9,77.2 C20.7,75.9 22.1,72.6 22.2,71.7 C22.3,70.9 22.4,69.8 22.1,69.8 C21.8,69.8 21.8,70.5 21.3,71.9 C20.8,73.3 19,77.7 17.3,79.1 C15.6,80.5 13.9,81.2 13.9,81.6 C13.9,82 14.2,82 15.3,81.6 C16.4,81.2 20.1,79.5 23.6,75.8 C27.2,72.2 29.3,69.2 30.1,67.8 C30.9,66.3 31.5,63.4 32.9,63.4 C32.9,63.4 33.7,62.7 32.3,66.9 C30.8,71.1 29.2,75.2 28.6,76.4 C28.2,77.5 24.3,81.6 21.4,82.6 Z M37.6,82.5 C37.3,82.8 36.9,82.3 37.2,81.3 C37.6,80.2 37.8,80.1 37.8,80.4 C37.8,80.4 37.9,82.2 37.6,82.5 Z M38.3,83.5 C37.6,83.8 38.1,81.5 38.1,81.5 C38.9,81 38.4,83.4 38.3,83.5 Z M38.8,78.5 C38.8,79.1 38.7,81 38.7,81 C38,81.2 38.2,78.3 38.8,78.5 Z M45.8,82.5 C44.9,83.8 43.7,85 40.1,84.1 C40.1,84.1 38.6,83.5 38.6,83.2 C38.6,83 38.7,82 39,82 C39.2,82 39.4,82.6 40.5,83 C41.6,83.4 44.3,84 45.3,82.1 C45.3,82.1 43.6,82.9 41.8,82.7 C40.1,82.5 39.8,82.3 39.9,81.7 C40.1,81.1 40.4,81.1 40.8,81.2 C41.2,81.3 41.8,82.1 43.2,82 C44.6,81.9 46,80.8 46,80.8 C46,80.8 46.4,80.5 46.5,80.6 C46.5,80.7 46.7,81.1 45.8,82.5 Z M39.7,80.2 L39.7,82.1 C39.1,82.2 39.2,80 39.7,80.2 Z M42.2,73.4 C42.2,73.4 44.4,75.1 45.1,76.1 C45.7,77.1 45.7,79.9 45.7,79.9 C46.9,78.4 45.9,76.5 45.9,76.5 C44,73.4 42.8,73.7 42.5,72.5 C42.3,71.3 42.8,71.5 43.4,71.7 C44,71.9 45.6,73.5 46.5,74.7 C47.4,75.9 47.5,77.8 46.9,79 C46.2,80.5 45,81 45,81 C45.1,79.5 44.8,78.3 44.3,77 C43.8,75.8 42,74.7 42,74.7 L42.2,73.4 Z M41.9,75 C43.2,75.5 44.4,77.4 44.5,79.3 C44.6,81.2 43.9,81.2 43.9,81.2 C42.3,81.5 41,80.5 40.6,79.9 C40.2,79.3 38.4,76.6 39.4,75.5 C40.4,74.3 41.9,75 41.9,75 Z M41.4,65.5 C41.3,66 40.6,68.5 40.3,69.9 C39.9,71.6 39.8,73.9 39.3,74.1 C38.8,74.3 34.9,77.5 34.6,77.4 C34.2,77.4 34.5,77.2 34.8,77 C35.1,76.8 37.8,73.5 38.3,72.4 C39.5,70.4 41.1,64.8 41.4,64.8 C41.4,64.9 41.5,65 41.4,65.5 Z M40.8,64.7 C39.5,67.8 37.8,72.2 37.1,73.1 C36.4,74 35,77.3 31,79 C31,79 28.7,79.6 28.7,78.5 C28.7,77.5 29.5,77.6 29.9,76.5 C30.3,75.4 32.7,71.2 33.5,67.5 C34.3,63.9 34.3,64.6 34.4,63 C34.4,63 35.8,62.4 35.8,62.5 C35.8,62.6 35.5,66.4 34.7,69 C33.9,71.5 33,71.7 33.3,73.1 C33.3,73.1 33.5,73.1 33.9,72.5 C34.3,71.9 37.2,63.5 37.3,62.3 C37.3,62.3 41,60.2 41.5,59.6 C41.7,59.6 42.1,61.6 40.8,64.7 Z" id="Shape" fill="#535453"></path>
            <path d="M5.4,81.5 C4.6,81.2 1.2,79.6 1.5,75.8 C1.8,72.1 5.4,70.8 5.4,71.2 C5.4,71.2 3.8,73.9 4.2,75.2 C4.6,76.5 5.2,78.4 7.3,80.3 C7.3,80.3 4.9,80.7 4.1,79.1 C3.2,77.5 3.9,76.3 3.6,76.3 C3.3,76.3 2.6,76.4 2.9,78 C3.2,79.6 4.3,80.3 5.7,80.7 C7.1,81.1 8.9,80.8 8.7,81.4 C8.5,82 6.2,81.8 5.4,81.5 Z" id="Shape" fill="#000000"></path>
            <path d="M8,71.4 C11.3,69.6 13.4,71.1 13.4,71.2 C13.4,71.3 12.6,73.1 12.6,73.1 C9,71.2 5.3,74.2 5.3,74.2 C5.1,73.7 4.7,73.2 8,71.4 Z" id="Shape" fill="#000000"></path>
            <path d="M13.8,69.8 C14,70.2 13.4,70.8 13.4,70.8 C11.3,69.6 8.8,70.5 8.6,70.6 C8.3,70.7 8.1,70.6 8.1,70.6 C8.1,70.3 8.3,70.1 8.7,69.9 C11,69.6 13.3,69.8 13.8,69.8 Z" id="Shape" fill="#000000"></path>
            <path d="M15,85.8 C14.7,87.1 12,90.2 11.3,91.1 C10.6,92 10,93 10.4,94.7 C10.8,96.1 10.8,96.6 10,96.7 C9.5,96.8 9.6,95.8 9.2,95.7 C8.8,95.6 9,95.9 8.7,96 C8.4,96.1 6.2,96.4 6.1,95.4 C6,94.4 6.7,93.7 7.1,93.5 C7.1,93.5 8.1,93 8.3,92.3 C8.5,91.6 8.3,89.8 9.2,88.3 C10.1,86.8 11.4,84.1 13.7,83.6 C15.7,83.2 15.2,84.9 15,85.8 Z" id="Shape" fill="#000000"></path>
            <path d="M9.9,55 C9.3,56.4 10,57.6 10.9,59.6 C11.7,61.6 14.7,64.4 14.7,64.4 L14.1,67.4 C13.8,66.3 8.4,60.7 7.9,53.5 C7.4,46.2 13.3,42.4 13.3,42.4 L13.2,44.4 C8.4,48.6 9.9,53.8 9.9,53.8 C11.1,47.1 13.2,45.5 13.2,45.5 L13,48.3 C10.3,50.8 11,53.6 11.4,56.2 C11.8,58.8 15.8,62.2 15.8,62.2 C15.5,62.4 14.9,63.5 14.9,63.5 C10.9,59.7 9.9,55 9.9,55 Z" id="Shape" fill="#000000"></path>
            <path d="M21.2,9.4 L21.3,11.8 C21.3,11.8 20.1,12.1 20.1,11.6 C20,11 20,9.6 21.2,9.4 Z" id="Shape" fill="#000000"></path>
            <path d="M18.7,20.5 C18.7,19.1 19,18.3 19.4,18.1 C19.8,17.9 20.6,18.7 20.6,18.8 C20.6,18.9 19.6,18.8 19.6,18.8 L20.4,19.6 C20.5,19.7 20.5,20.3 20.2,19.9 C19.9,19.5 19.5,19.4 19.3,19.5 C19.1,19.6 20.1,20.7 20.6,20.8 C21.1,20.9 20.8,20.6 21.2,20.4 C21.6,20.3 21.5,20.6 21.5,20.6 C21.2,20.8 20.9,21.5 20.4,22.1 C19.8,22.6 19.8,23.7 19.8,23.7 C19.4,23.9 19.5,23 19.3,22.4 C19.2,21.7 18.7,21.9 18.7,20.5 Z" id="Shape" fill="#000000"></path>
            <path d="M23,11.6 L21.5,11.6 C21.5,11.6 21.1,9.6 21.8,8.7 C22.6,7.8 23,8.9 23,8.9 L23,11.6 Z" id="Shape" fill="#000000"></path>
            <path d="M24.3,22.7 C23.3,22.2 22.6,23 22.6,23 C22.1,23.1 22.1,23 22,22.7 C21.8,22.4 21.2,22.2 20.7,22.8 C20.2,23.4 20.5,26.1 20.8,26.6 C21.1,27.1 22.2,27.2 22.4,27 C22.6,26.8 22.8,26.8 22.8,26.8 C23.6,27.2 25.3,27.2 25.6,25.6 C25.9,24 25.3,23.2 24.3,22.7 Z M24,25.1 C23.5,24.9 23.1,24.5 22.4,24.6 C21.7,24.7 22,24.9 21.7,25 C21.7,25 20.9,25.3 21,24.9 C21,24.5 21.6,24.3 22.5,24.4 C23.4,24.4 24.1,24.5 24.6,25 C24.6,24.9 24.5,25.2 24,25.1 Z M22.6,23.8 C22.3,23.8 21,24.3 20.8,24 C20.8,24 21,23.3 22.5,23.4 C24,23.5 24.5,23.6 24.7,24 C24.9,24.3 23,23.8 22.6,23.8 Z" id="Shape" fill="#000000"></path>
            <path d="M25.4,11.6 L23.4,11.5 C23.4,11.1 23.5,9.2 23.5,9.2 C24.8,7.1 25.7,8.7 25.7,8.7 C25.7,8.7 25.8,10.9 25.7,11.2 C25.6,11.3 25.4,11.6 25.4,11.6 Z" id="Shape" fill="#000000"></path>
            <path d="M26.9,12.3 C26.8,12.4 25.8,11.6 25.8,11.6 C26,11.3 25.9,10.6 26.2,9.8 C26.5,9.1 26.9,8.8 27.3,9 C27.7,9.2 27.5,10.9 27.5,11.4 C27.4,11.9 27,12.2 26.9,12.3 Z" id="Shape" fill="#000000"></path>
            <path d="M20.5,12.1 C21,11.6 24.2,11.6 25.5,11.9 C26.9,12.2 28.3,13.5 28.2,13.8 C28.1,14.1 27.6,14 27.2,14 C26.8,14 26.6,13.5 25.4,13.1 C24.2,12.7 20.7,13.1 20.7,13.1 C20.3,13.1 19.9,12.6 20.5,12.1 Z" id="Shape" fill="#000000"></path>
            <path d="M20.1,14.1 C21.9,13.1 22.3,13.7 22.3,13.7 C22,14.3 22.1,16.8 22.1,17.3 C22.1,17.8 22.3,17.7 22.3,17.7 C23,13.8 23.6,13.8 24.5,13.4 C25.4,13.1 26.9,14.3 27.8,14.9 C28.7,15.5 28.9,17.4 28.9,18 C28.9,18.5 28.3,21.9 28.3,21.9 C26.8,22.1 27.4,23.5 27.2,24.4 C27,25.3 26.4,25.4 26.4,25.4 C26.5,23 25.9,22.1 25.4,21.6 C24.9,21.1 24.1,20.9 24.1,20.9 C23.6,21 24.6,21.4 24.7,21.6 C24.8,21.8 24.7,22.1 24.5,22.2 C24.3,22.3 21.2,22.2 21.1,22 C21,21.8 21.8,20.7 21.9,20.5 C22,20.2 21.8,19.4 22.1,19.3 C22.4,19.2 22.6,19.6 22.9,20.2 C23.2,20.8 23.4,20.6 23.4,20.3 C23.4,20 23.5,19.9 23.5,19.9 C24.3,20.6 25.4,20.4 26,20.2 C26.6,20 26.8,19.8 26.8,19.7 C26.8,19.6 26.5,19.7 26.4,19.8 C26.3,19.8 25.5,20 25.4,19.9 C25.3,19.8 25.3,19.7 26.2,19.6 C27.2,19.4 26.8,18.7 26.8,18.7 C26.5,18.7 25.7,19 25.2,19.1 C24.7,19.2 24.5,19.2 24.5,19 C24.5,18.8 26.8,18.2 27.3,18.1 C27.8,18 27.7,17.8 27.7,17.8 C26.6,17.5 25.9,17.9 25.3,18.2 C24.7,18.4 24.3,18.8 23.9,18.7 C23.5,18.7 23.7,18.4 23.7,18.4 C25.1,17.7 25.3,17 25.7,16.4 C26,15.8 26.5,14.7 26.1,14.4 C25.7,14.1 25.5,15.4 25.5,15.7 C25.5,16 25.1,17.3 24,17.8 C22.9,18.4 22.6,18.1 22.1,18.1 C21.6,18.1 20.8,17 20.6,16.5 C20.4,16 20.4,14.7 20.4,14.7 C20.1,14.5 19.9,14.8 19.9,15.7 C19.8,16.6 20.9,17.7 21.1,18.2 C21.3,18.7 21,18.5 20.9,18.4 C20.8,18.4 20.4,17.6 19.8,17.6 C19.2,17.5 18.7,17.6 18.7,17.6 C18.7,17.6 18.3,15.2 20.1,14.1 Z" id="Shape" fill="#000000"></path>
            <path d="M27.7,12.6 C27.5,12.5 27.7,11.7 27.7,11.7 C28,9.8 28.3,9.7 28.8,9.7 C29.3,9.8 28.7,11.4 28.6,11.8 C28.5,12.4 27.9,12.8 27.7,12.6 Z" id="Shape" fill="#000000"></path>
            <path d="M27.6,39.2 C27.8,39.4 28.3,42.8 30.7,43.3 C30.7,43.3 29,44.3 29.2,47.7 C29.2,47.7 26.1,47.8 26.7,43.6 C26.7,43.6 25.2,42.5 25.9,39.2 C25.9,39.2 27.4,38.9 27.6,39.2 Z" id="Shape" fill="#000000"></path>
            <path d="M30,21.7 C30,21.7 29.5,21.1 29.7,20.6 C29.9,20.1 29.8,20.2 30.2,20.1 C29.9,20.1 28.9,18.8 30.1,18.7 C30.1,18.7 29.6,19.6 30.6,20 C30.5,20 30.3,20 30.2,20.2 C30.1,20.4 30.3,21.4 30.4,21.6 C30.4,21.6 30.9,21.8 31.2,21.8 L31.2,22.1 L29.9,22 C29.9,22 29.9,22.6 29.7,22.7 C29.5,22.9 29.7,23.9 28.9,24.1 C28.9,24.1 28.5,23.9 28.9,23.6 C29.3,23.3 29.3,23 29.4,22.4 C29.5,21.7 29.5,21.6 30,21.7 Z" id="Shape" fill="#000000"></path>
            <path d="M30.7,20.2 L32.7,20.2 C33,20.7 31.1,21.2 30.7,20.2 Z" id="Shape" fill="#000000"></path>
            <path d="M30.7,17.5 C30.4,17.1 30.9,17.1 30.9,17.1 C33,16.8 33,17.5 32.8,17.7 C32.5,18.1 31,18 30.7,17.5 Z" id="Shape" fill="#000000"></path>
            <path d="M30.9,18.6 C33.5,18.3 33.3,19.1 32.8,19.2 C31.5,19.1 30.4,19.3 30.4,18.8 C30.4,18.4 30.9,18.6 30.9,18.6 Z" id="Shape" fill="#000000"></path>
            <path d="M28.9,76.3 C28.3,77.5 24.4,81.6 21.5,82.6 C18.8,83.4 16.4,82.9 13.4,82.8 C13.4,82.8 10.5,83.1 10.6,81.9 C10.7,80.7 11.3,79.9 11.8,78.4 C12.3,76.9 15.2,68.4 15.5,67.4 C15.8,66.4 16.3,64.8 16.7,64.4 C16.7,64.4 17.1,63.6 18.2,63.6 C19.3,63.6 19.7,64.3 21.1,64.3 C22.5,64.3 24.3,63.7 24.4,63.8 C24.5,64 22.1,66.9 20.4,66.7 C18.7,66.5 19.1,64 18.9,64 C18.7,64 17.7,63.6 17.5,66 C17.3,68.4 19.4,68.3 20.1,68.1 C20.8,67.9 22.2,67.2 23.1,66.3 C24,65.4 26.4,63.9 26.5,64.2 C26.6,64.5 25,66 24.5,66.8 C24,67.6 22.5,68.6 22.5,68.9 C22.5,69.2 23.5,68.6 24,68.2 C24.5,67.8 27.8,64.1 29,63.8 C30.2,63.6 31,63.5 30.9,64.3 C30.5,68 23.3,76.2 19.6,78.2 C19.6,78.2 19.3,78.5 20,77.2 C20.8,75.9 22.2,72.6 22.3,71.7 C22.4,70.9 22.5,69.8 22.2,69.8 C21.9,69.8 21.9,70.5 21.4,71.9 C20.9,73.3 19.1,77.7 17.4,79.1 C15.7,80.5 14,81.2 14,81.6 C14,82 14.3,82 15.4,81.6 C16.5,81.2 20.2,79.5 23.7,75.8 C27.3,72.2 29.4,69.2 30.2,67.8 C31,66.3 31.6,63.4 33,63.4 C33,63.4 33.8,62.7 32.4,66.9 C31.1,71 29.5,75.1 28.9,76.3 Z" id="Shape" fill="#000000"></path>
            <path d="M32.1,38.4 C32.7,38.5 33.9,39.2 33.8,40.3 C33.6,41.8 33,42 32.4,42.2 C31.8,42.4 30.7,42.2 30.7,42.2 C30.7,42.2 29.9,40.9 29.5,40.4 C29.1,39.8 29,39.1 29.1,38.8 C29.2,38.5 30.3,37.5 30.3,37.5 C30.8,36.9 31.5,38.3 32.1,38.4 Z" id="Shape" fill="#000000"></path>
            <path d="M31.7,36.5 C31.1,35.3 31.7,34.4 31.7,34.4 C31.8,34.2 32.2,34.9 32.5,35.2 C32.8,35.5 33.9,35.6 34,36 C34.1,36.4 34,37.7 33.4,38.1 C32.8,38.4 32.4,37.6 31.7,36.5 Z" id="Shape" fill="#000000"></path>
            <path d="M34.9,22.2 C34.5,23 33.3,23.6 32.4,23.7 C31.6,23.8 31.1,22.9 31.2,22.6 C31.3,22.2 31.6,21.1 31.9,21.4 C32.2,21.7 32.2,22.1 32.3,22.5 C32.4,22.9 32.6,23.6 33.1,23.1 C34.2,22.2 34.1,20.7 34.4,20.9 C34.4,21 35.2,21.4 34.9,22.2 Z" id="Shape" fill="#000000"></path>
            <path d="M36.8,41.5 C37.3,41.8 37.4,45.5 37.4,45.5 C37.3,46.4 35.5,47.4 34.5,47.6 C33.5,47.9 30.9,48.1 30.9,48.1 C31.4,39.6 36.8,41.5 36.8,41.5 Z" id="Shape" fill="#000000"></path>
            <path d="M35,39.5 C34.6,38.9 33.8,37.4 35,36 C36.2,34.6 36.9,36.1 36.9,36.1 C37.1,36.5 37.6,38.2 37.6,38.7 C37.6,39.2 37.6,40.1 36.8,40.5 C36,41 35.4,40.1 35,39.5 Z" id="Shape" fill="#000000"></path>
            <path d="M37.8,80.4 C37.8,80.4 37.8,82.2 37.6,82.5 C37.3,82.8 36.9,82.3 37.2,81.3 C37.6,80.2 37.8,80.1 37.8,80.4 Z" id="Shape" fill="#000000"></path>
            <path d="M38.3,83.5 C37.6,83.8 38.1,81.5 38.1,81.5 C38.9,81 38.4,83.4 38.3,83.5 Z" id="Shape" fill="#000000"></path>
            <path d="M36.8,49 C37.8,47.9 37.3,47.5 37.3,47.5 C37,48.3 34.5,50.3 34.1,50.4 C33.8,50.6 32.1,51.1 31.9,50.8 C31.7,50.5 32.4,49.7 33.1,49.4 C33.8,49 33.4,49.1 33.4,49.1 C30.1,49.7 30.3,51.4 30.3,51.4 C27.3,51.7 25.4,51.9 26.4,50.7 C27.4,49.5 30.8,48.6 31,48.5 C36,47.9 36.1,47.2 36.8,46.8 C37.5,46.4 38,46.4 38,46.4 C38.7,46.3 38.5,47.9 38.5,48.2 C38.4,48.6 36.6,50.1 36.5,49.9 C36.5,49.6 36.8,49 36.8,49 Z" id="Shape" fill="#000000"></path>
            <path d="M38.7,81 C38,81.1 38.2,78.3 38.8,78.5 C38.8,79.1 38.7,81 38.7,81 Z" id="Shape" fill="#000000"></path>
            <path d="M39,42.6 C38.8,42.4 39.5,41.3 39.5,41.6 C39.5,41.5 39.2,42.8 39,42.6 Z" id="Shape" fill="#000000"></path>
            <path d="M39.7,80.2 L39.7,82.1 C39.1,82.2 39.2,80 39.7,80.2 Z" id="Shape" fill="#000000"></path>
            <path d="M39.9,42.6 C39.8,42.5 40.2,41.1 40.6,41.3 C40.6,41.3 40,42.7 39.9,42.6 Z" id="Shape" fill="#000000"></path>
            <path d="M41.1,94.3 L41.1,94.3 C41.1,94.9 36.9,94.8 36.9,94.8 C36.9,94.8 35.4,93.4 33.3,94 C31.1,94.5 30.7,94.1 30.3,94 C29.9,93.9 30.1,92.8 30,92.5 C29.9,92.2 29.2,92.8 28.9,91.8 C28.5,90.8 28.2,84.6 29.6,81.8 C31,79 35.4,78.9 35.4,78.9 C35.8,78.9 34.2,82.7 33.1,85.5 C32,88.3 33.1,90.5 33.8,90.9 C34.9,91.5 35.9,92.6 37.7,93.1 C38.1,93.2 38.6,93.3 38.9,93.4 C39.7,93.8 40.5,94 41.1,94.3 Z" id="Shape" fill="#000000"></path>
            <path d="M39.3,74.2 C38.8,74.4 34.9,77.6 34.6,77.5 C34.2,77.5 34.5,77.3 34.8,77.1 C35.1,76.9 37.8,73.6 38.3,72.5 C39.5,70.5 41.1,64.9 41.4,64.9 C41.4,64.9 41.5,65 41.4,65.5 C41.3,66 40.6,68.5 40.3,69.9 C39.9,71.6 39.7,74 39.3,74.2 Z" id="Shape" fill="#000000"></path>
            <path d="M41.3,41.3 C41.5,41.1 41.6,41.5 41.3,42.2 C41,42.9 40.8,42.7 40.6,42.3 C40.4,41.9 41.3,41.3 41.3,41.3 Z" id="Shape" fill="#000000"></path>
            <path d="M34.8,69 C34,71.5 33.1,71.7 33.4,73.1 C33.4,73.1 33.6,73.1 34,72.5 C34.4,71.9 37.3,63.5 37.4,62.3 C37.4,62.3 41.1,60.2 41.6,59.6 C41.6,59.6 42,61.6 40.8,64.7 C39.5,67.8 37.8,72.2 37.1,73.1 C36.4,74 35,77.3 31,79 C31,79 28.7,79.6 28.7,78.5 C28.7,77.5 29.5,77.6 29.9,76.5 C30.3,75.4 32.7,71.2 33.5,67.5 C34.3,63.9 34.3,64.6 34.4,63 C34.4,63 35.8,62.4 35.8,62.5 C35.9,62.6 35.6,66.4 34.8,69 Z" id="Shape" fill="#000000"></path>
            <path d="M41.7,39.5 C41.7,39.5 41,40.6 40.9,40.6 C40.7,40.6 40.9,39.7 41.2,39.4 C41.5,39 42,38.9 41.7,39.5 Z" id="Shape" fill="#000000"></path>
            <path d="M40.8,11.6 C39.2,7.9 34.1,-1.55431223e-15 19.8,1.7 C9.7,3.8 6.2,12.6 6.6,19.1 L6.6,19.2 C7,22 8.2,24.4 10,26.4 C13.4,30.1 15.5,30.8 15.5,30.8 L16.3,30 C16.3,30 9.5,26 8.5,21.6 C7.4,17.2 7.5,11.8 11.9,7.3 C11.9,7.3 15.8,3.5 17.6,3.6 L17.6,4 C17.6,4 10.3,7.7 9.4,13 C8.5,18.3 8.8,20.9 11,24.3 C13.2,27.7 17.1,29.5 17.1,29.5 C17.1,29.5 19.6,28 20.9,28 C20.9,28 21.2,27.8 20.7,27.7 C20.2,27.6 14.2,26.2 11.6,20.6 C11.6,20.6 11.5,19.7 11.8,19.8 C12.2,19.9 12.5,20.3 12.6,20.6 C12.7,20.9 16.4,26.1 20,26.6 C20,26.6 18.2,21.8 18.1,21 C18,20.2 17.8,19.3 18.3,19.1 C18.3,19.1 18,18.3 18,17.3 C17.9,16.3 17.9,13.8 20.1,13.6 C20.1,13.6 19.3,11.9 19.8,10.6 C20.3,9.3 21.4,8 22.2,8 C23,8 23.5,8.3 23.5,8.3 C23.5,8.3 25.1,6.6 26.3,8.7 C26.3,8.7 27.1,8.2 27.7,8.6 C28.3,8.9 28.1,9.5 28.1,9.6 C28.2,9.6 28.9,9.4 29.3,9.7 C29.8,10 29.3,11.7 29.3,11.7 C29.3,11.7 30.3,11.7 30.6,12.3 C30.9,13 31.5,14 31.4,16 C31.4,16 30.9,16 30.8,15.6 C30.7,15.1 30.8,12.7 29,12.3 C29,12.3 28.7,12 28.7,13.8 C28.7,13.8 29.3,13.6 29.6,14.1 C29.8,14.6 30.3,14.9 30.4,15.9 C30.5,16.9 30.2,17 30.9,16.9 C31.6,16.8 33,16.5 32.9,16.4 C32.9,16.2 33.3,14.5 32.8,13.1 C32.3,11.6 30.6,9.9 30.6,9.9 C30.6,9.9 30.5,9.5 30.8,9.5 C31.2,9.6 34.5,11.6 33.8,16.5 C33.8,16.5 33.9,16.7 34.4,16.7 C34.9,16.7 36.2,18.3 36.5,18.4 C36.8,18.5 39,18.7 39.1,18.6 C39.1,18.6 39.5,14.6 39.4,13.8 C39.4,13 39.2,9.2 34.1,5.6 C34.1,5.6 33.9,5 34.4,5.1 C34.9,5.2 37.4,7.3 38.4,8.8 C39.4,10.3 40.2,11.8 40.3,13.3 C40.3,14.8 40,18.8 40,18.8 L42,19.2 C41.9,17.6 42,14.4 40.8,11.6 Z M18.3,22.7 C18.4,22.9 17.3,22.8 17.3,22.8 C17.3,22.8 14.5,21.6 14.1,16.3 C13.7,11 15.9,9.7 16.2,9.7 C16.6,9.8 16.4,10.1 16.4,10.1 C16.4,10.1 14.9,10.7 14.6,15.6 C14.5,20.6 18.3,22.7 18.3,22.7 Z M24.4,7.4 C20.6,7.4 19.3,8.6 19.3,8.6 C18.8,8.7 18.6,8.4 18.6,8.4 C19.9,6.8 23.5,6.7 24.1,6.9 C24.8,7.1 24.4,7.4 24.4,7.4 Z M32.9,4.8 C28.7,0.9 20.1,2.9 20.1,2.9 C19.7,2.8 20.1,2.5 20.1,2.5 C28,0.3 33.2,4 33.3,4.3 C33.3,4.7 32.9,4.8 32.9,4.8 Z" id="Shape" fill="#000000"></path>
            <path d="M41.5,41 C41.2,40.7 42,40.2 42,40.2 C42.4,40.1 41.8,41.3 41.5,41 Z" id="Shape" fill="#000000"></path>
            <path d="M41.4,58.6 C41,58.6 41,57.6 40.9,56.2 C40.8,54.8 40,52.6 40,52.6 C39.5,53.2 41.5,59 40.6,59.7 C39.7,60.3 39.2,55 38.9,53.6 C38.6,52.2 38.4,52.6 38.4,52.6 C38.6,53.3 39,60.1 38.8,60.7 C38.7,61.3 37.8,61.7 36.9,61.8 C36.1,61.9 36,60.1 36.2,57.9 C36.4,55.7 35.6,52.8 35.5,52.6 C35.3,52.4 35.4,53 35.3,53.8 C35.3,54.5 35.7,58.7 35.7,59.8 C35.7,60.9 35.4,61.9 35,62.1 C34.6,62.3 32.3,62.8 31.6,62.8 C30.9,62.8 30.7,62.4 30.6,61.8 C30.5,61.2 31,58.6 31.4,57.1 C31.9,55.6 31.8,54 31.6,53.8 C31.4,53.6 30.5,59 30.2,60.1 C29.8,61.2 28.6,63 27,63.2 C25.4,63.4 24.8,63 24.8,63 C27.1,62.7 26.7,61.7 26.7,61.7 L26.2,61 L26.2,60 C26.2,59.5 24.1,58.6 24.1,58.6 C24.1,54.5 26.8,52.3 26.8,52.3 C26.8,52.3 29.4,52.7 32.5,52.1 C35.5,51.5 36.9,50.4 37.8,50 C38.7,49.6 39.2,49.5 39.4,49.6 C39.6,49.7 41.4,52.6 42,53.7 C42.5,54.7 43.1,57.2 42.8,58 C42.3,58.7 41.8,58.5 41.4,58.6 Z" id="Shape" fill="#000000"></path>
            <path d="M45.4,58.1 C45.4,58.1 44.7,56.8 44.8,56.2 C44.9,55.6 45.2,55.5 45.2,55.5 C45.2,55.5 45.5,56.3 45.6,57.1 C45.7,57.9 45.4,58.1 45.4,58.1 Z" id="Shape" fill="#000000"></path>
            <path d="M45.3,20.8 C45,20.5 44.4,20.1 43.5,19.7 L43.5,19.7 C42.5,19.4 41.8,19.4 41.8,19.4 L41.8,19.2 C40.6,18.9 39.2,18.7 37.4,18.9 C37.4,18.9 35.8,19.7 35.6,20 C35.6,20 35.3,20 35.3,19.6 C35.3,19.2 35.3,17.9 34.5,18 C33.7,18.1 34.2,20.1 34.5,20.4 C34.8,20.7 37.9,21.6 37.9,21.6 C37.9,21.6 40.6,22.4 42.3,22.5 C42.3,22.5 44.3,22.8 38,22.6 C38,22.6 38.5,23.6 40.8,23.8 C43,24 44.1,23.6 44.1,23.6 C44.1,23.6 45,23.8 41.4,25.2 C41.4,25.2 39.8,25.4 38.8,24.8 C37.8,24.2 34.2,24.5 33.8,25.3 C33.8,25.3 32.9,26 33.8,26.3 C34.6,26.6 35.1,26.6 35.1,26.7 C35.1,26.8 35.1,26.9 33.6,26.7 C32.2,26.6 30.9,26.2 30.2,26.7 C29.5,27.2 29.2,27.7 29,27.3 C28.8,26.9 28.2,25.7 27.8,25.9 C27.4,26.2 27.5,28 27.5,28 C27.5,28 26.2,26.4 25.8,26.8 C25.3,27.2 26.1,28.3 25.9,28.5 C25.7,28.7 25.6,28.7 25.4,28.5 C25.2,28.3 23.9,27.2 23.2,27.6 C22.4,28 22.7,28.7 22.3,28.8 C21.9,28.9 21.7,28.6 21.2,28.5 C20.7,28.5 18.9,28.8 18,29.5 C17.1,30.2 14.6,32.8 14.5,36.8 C14.4,40.8 16,40.2 15.9,42.8 C15.9,42.8 16.3,43.9 15.9,43.8 C15.5,43.8 15.2,43.3 15.1,42.8 C15.1,42.3 15.1,41.7 14.6,41.8 C14.1,41.9 14.2,42.9 14.2,42.9 C14.2,42.9 14.2,45.6 14.3,46.8 C14.6,49.8 13.8,56.6 13.8,56.6 C13.8,56.6 13.5,57.8 14.2,58.6 C14.8,59.4 19.2,63.1 23.7,62.8 C23.7,62.8 24.1,62.5 23.5,62.3 C23,62.1 21.4,61.5 21.1,61.1 C21.1,61.1 22.6,61.5 23.8,62.1 C23.8,62.1 24.9,62.7 25.1,62.3 C25.3,61.9 24.7,60.5 20.5,60 C20.5,60 20.7,59.5 22.5,60.2 C24.3,60.8 25.2,61.2 25.4,61.6 C25.4,61.6 25.9,62 26.2,61.6 C26.5,61.2 26.2,60.9 25.6,60.6 C25,60.3 21.8,59 20.9,58.8 C20.9,58.8 20.8,58.5 21.4,58.6 C21.9,58.7 25.6,60.3 25.6,60.3 C25.6,60.3 26.2,60.6 26,60.1 C25.8,59.6 24.7,58.7 21.8,57.8 C21.8,57.8 21.6,57.4 22.4,57.6 C23.3,57.8 23.5,58.1 23.7,58 C23.9,57.8 24.1,57.1 21.8,56.9 C19.5,56.7 18.2,57 18,56.8 C17.8,56.6 17.5,56.7 17.7,55.3 C17.8,54 18.2,51.4 18.5,50.5 C18.9,49.6 19.5,47.1 19.5,45.8 C19.5,45.8 20.8,44.5 21.1,43.9 C21.4,43.2 21.7,42 21.9,40.2 C22.1,38.3 23,36.3 24,36.3 C24,36.3 26.1,37.8 27.6,37.8 C29.1,37.8 30.7,37 30.8,36.5 C30.9,36 30.8,32.8 31.1,32.6 C31.3,32.4 31.4,32 31.8,32.3 C32.3,32.7 34.1,34.3 34.7,34.5 C35.3,34.7 36.5,35.1 37.2,34.8 C37.9,34.4 38.1,33.8 38,33 C37.8,32.2 37.2,31 37.1,30.4 C36.9,29.8 36.7,29.3 37.2,28.5 C37.7,27.7 39.4,26.7 39.9,27.1 C40.4,27.5 39.9,27.9 40.2,28.1 C40.5,28.3 41.2,28.2 41.5,28 C41.7,27.8 44.5,25.2 44.5,25.2 C44.5,25.2 46.1,23.7 46.4,22.8 C46.2,22.2 46.1,21.5 45.3,20.8 Z M27.6,29.1 C28.4,29 28.4,28.4 29.3,28.4 C29.9,28.4 29.1,29.8 27.9,29.8 C26.7,29.8 26.1,29.4 26.1,29.4 C26.5,29.1 26.7,29.2 27.6,29.1 Z M21.1,37.8 C20.9,37.9 20.5,37.4 20.7,36.9 C20.9,36.4 20.9,34.3 20.6,33.7 C20.2,33.1 19.8,32.6 19.2,32.9 C19.2,32.9 19.6,36.7 18.7,37.7 C18.7,37.7 18.5,37.7 18.7,37 C18.9,36.4 18.7,34.4 18.7,33.8 C18.7,33.2 18.2,32.1 16.8,34.3 C16.8,34.3 16.4,35.5 16.8,37.3 C16.8,37.3 16.7,38 16.2,37.3 C15.7,36.6 16.4,32.9 16.4,32.9 C16.4,32.9 15.6,32.8 15.9,32.4 C15.9,32.4 16.4,32.6 16.8,32.4 C17.2,32.2 17.8,31.6 18.3,31.8 C18.8,32 18.9,31.7 19,32.2 C19,32.2 19.8,31.8 20.3,32.2 C20.8,32.6 21.4,33 21.4,34.5 C21.5,36.4 21.4,37.7 21.1,37.8 Z M24.3,29.6 C21.4,30.3 21.2,32.4 21.2,32.4 C20.8,32.8 20.3,32.2 21.1,30.7 C21.9,29.3 23.8,28.8 24.4,29 C25,29.3 24.3,29.6 24.3,29.6 Z M32.5,29.1 C34.2,28.9 33.8,29.5 33.8,29.5 C31.6,29.7 24.6,32.4 24.6,32.4 C23.7,31.6 30.8,29.3 32.5,29.1 Z M31.4,31.8 C30.5,32.1 25.5,34.3 25.5,34.3 C25.5,33.1 34.2,30 34.3,30.7 C34.3,31 32.3,31.5 31.4,31.8 Z" id="Shape" fill="#000000"></path>
            <path d="M46.5,80.7 C46.5,80.7 46.7,81.2 45.8,82.5 C44.9,83.8 43.7,85 40.1,84.1 C40.1,84.1 38.6,83.5 38.6,83.2 C38.6,83 38.7,82 39,82 C39.2,82 39.4,82.6 40.5,83 C41.6,83.4 44.3,84 45.3,82.1 C45.3,82.1 43.6,82.9 41.8,82.7 C40.1,82.5 39.8,82.3 39.9,81.7 C40.1,81.1 40.4,81.1 40.8,81.2 C41.2,81.3 41.8,82.1 43.2,82 C44.6,81.9 46,80.8 46,80.8 C46,80.8 46.4,80.5 46.5,80.7 Z" id="Shape" fill="#000000"></path>
            <path d="M46.5,74.8 C47.4,76 47.5,77.9 46.9,79.1 C46.2,80.5 45,81 45,81 C45.1,79.5 44.8,78.3 44.3,77 C43.8,75.8 42,74.7 42,74.7 L42.1,73.4 C42.1,73.4 44.3,75.1 45,76.1 C45.6,77.1 45.6,79.9 45.6,79.9 C46.8,78.4 45.8,76.5 45.8,76.5 C43.9,73.4 42.7,73.7 42.4,72.5 C42.2,71.3 42.7,71.5 43.3,71.7 C43.9,71.9 45.6,73.6 46.5,74.8 Z" id="Shape" fill="#000000"></path>
            <path d="M45.9,44.7 C48.3,48.3 47.7,51.5 47.5,52.3 C47.3,53.1 46,56.6 46,56.6 C45.2,55.1 45.8,53.9 45.8,53.9 C46.6,51.7 46.6,50.4 46.4,50 C46.3,49.7 46.3,50.7 45.8,52.7 C45.3,54.7 44.9,55.3 44.5,55.4 C44,55.4 44.5,53.4 44.5,53.4 C45.6,49.9 45.1,49.5 44.8,46.6 C44.6,43.7 42.3,42.9 41.9,42.9 C41.5,42.9 41.4,42.3 41.9,41.8 C42.6,41.3 43.5,41.1 45.9,44.7 Z" id="Shape" fill="#000000"></path>
            <path d="M48.5,29.8 C48.1,31.9 47.9,36.6 43.8,39.8 C43.8,39.8 42,38.6 40.8,38.4 C40.8,38.4 40.6,38.2 41.2,37.9 C41.8,37.5 44.3,34.9 45.1,31.7 C45.9,28.5 44.6,27 43.8,27 C43.8,27 44.6,25.7 44.8,25.6 C45,25.6 45.8,25.7 46,27.2 C46.3,28.7 46.3,35.7 42.9,38.7 C42.9,38.7 42.9,39.1 43.4,38.7 C43.9,38.3 45.1,37.7 46.1,34.8 C47.1,31.9 47.5,26.6 45.5,25 C45.5,25 45.6,24.3 46.2,24.6 C46.8,24.8 48.9,27.6 48.5,29.8 Z" id="Shape" fill="#000000"></path>
            <path d="M41.1,94.3 C41.1,94.9 36.8,94.8 36.8,94.8 C36.8,94.8 35.3,93.4 33.2,94 C31,94.5 30.6,94.1 30.2,94 C29.8,93.9 30,92.8 29.9,92.5 C29.8,92.2 29.1,92.8 28.8,91.8 C28.4,90.8 28.1,84.6 29.5,81.8 C30.9,79 35.3,78.9 35.3,78.9 C35.7,78.9 34.1,82.7 33,85.5 C31.9,88.3 33,90.5 33.7,90.9 C34.8,91.5 35.8,92.6 37.6,93.1 C38,93.2 38.5,93.3 38.8,93.4 C40.2,93.8 41.1,93.9 41.1,94.3 L41.1,94.3 Z" id="Shape" fill="#FFFFFF"></path>
            <path d="M15,85.8 C14.7,87.1 12,90.2 11.3,91.1 C10.6,92 10,93 10.4,94.7 C10.8,96.1 10.8,96.6 10,96.7 C9.5,96.8 9.6,95.8 9.2,95.7 C8.8,95.6 9,95.9 8.7,96 C8.4,96.1 6.2,96.4 6.1,95.4 C6,94.4 6.7,93.7 7.1,93.5 C7.1,93.5 8.1,93 8.3,92.3 C8.5,91.6 8.3,89.8 9.2,88.3 C10.1,86.8 11.4,84.1 13.7,83.6 C15.7,83.2 15.2,84.9 15,85.8 Z" id="Shape" fill="#FFFFFF"></path>
            <path d="M45.8,82.5 C44.9,83.8 43.7,85 40.1,84.1 C40.1,84.1 38.6,83.5 38.6,83.2 C38.6,83 38.7,82 39,82 C39.2,82 39.4,82.6 40.5,83 C41.6,83.4 44.3,84 45.3,82.1 C45.3,82.1 43.6,82.9 41.8,82.7 C40.1,82.5 39.8,82.3 39.9,81.7 C40.1,81.1 40.4,81.1 40.8,81.2 C41.2,81.3 41.8,82.1 43.2,82 C44.6,81.9 46,80.8 46,80.8 C46,80.8 46.4,80.5 46.5,80.6 C46.5,80.7 46.7,81.1 45.8,82.5 Z" id="Shape" fill="#FFFFFF"></path>
            <path d="M46.9,79.1 C46.2,80.5 45,81 45,81 C45.1,79.5 44.8,78.3 44.3,77 C43.8,75.8 42,74.7 42,74.7 L42.1,73.4 C42.1,73.4 44.3,75.1 45,76.1 C45.6,77.1 45.6,79.9 45.6,79.9 C46.8,78.4 45.8,76.5 45.8,76.5 C43.9,73.4 42.7,73.7 42.4,72.5 C42.2,71.3 42.7,71.5 43.3,71.7 C43.9,71.9 45.5,73.5 46.4,74.7 C47.4,76 47.4,77.9 46.9,79.1 Z" id="Shape" fill="#FFFFFF"></path>
            <path d="M39.7,82.1 C39,82.2 39.2,80.1 39.7,80.2 C39.8,80.6 39.7,82.1 39.7,82.1 Z" id="Shape" fill="#FFFFFF"></path>
            <path d="M38.7,81 C38,81.1 38.2,78.3 38.8,78.5 C38.8,79.1 38.7,81 38.7,81 Z" id="Shape" fill="#FFFFFF"></path>
            <path d="M37.6,82.5 C37.3,82.8 36.9,82.3 37.2,81.3 C37.6,80.2 37.8,80.1 37.8,80.4 C37.8,80.4 37.9,82.2 37.6,82.5 Z" id="Shape" fill="#FFFFFF"></path>
            <path d="M38.3,83.5 C37.6,83.8 38.1,81.5 38.1,81.5 C38.9,81 38.4,83.4 38.3,83.5 Z" id="Shape" fill="#FFFFFF"></path>
            <path d="M13.4,71.2 C13.4,71.3 12.6,73.1 12.6,73.1 C9,71.2 5.3,74.2 5.3,74.2 C5.1,73.7 4.7,73.2 8,71.4 C11.3,69.6 13.3,71 13.4,71.2 Z" id="Shape" fill="#FFFFFF"></path>
            <path d="M13.4,70.8 C11.3,69.6 8.8,70.5 8.6,70.6 C8.3,70.7 8.1,70.6 8.1,70.6 C8.1,70.3 8.3,70.1 8.7,69.9 C10.1,69.2 13.5,69.4 13.8,69.7 L13.9,69.8 C13.9,70.2 13.4,70.8 13.4,70.8 Z" id="Shape" fill="#FFFFFF"></path>
            <path d="M8.7,81.4 C8.5,82 6.2,81.8 5.4,81.5 C4.6,81.2 1.2,79.6 1.5,75.8 C1.8,72.1 5.4,70.8 5.4,71.2 C5.4,71.2 3.8,73.9 4.2,75.2 C4.6,76.5 5.2,78.4 7.3,80.3 C7.3,80.3 4.9,80.7 4.1,79.1 C3.2,77.5 3.9,76.3 3.6,76.3 C3.3,76.3 2.6,76.4 2.9,78 C3.2,79.6 4.3,80.3 5.7,80.7 C7.2,81.1 8.9,80.8 8.7,81.4 Z" id="Shape" fill="#FFFFFF"></path>
            <path d="M32.5,66.8 C31,71 29.4,75.1 28.8,76.3 C28.2,77.5 24.3,81.6 21.4,82.6 C18.7,83.4 16.3,82.9 13.3,82.8 C13.3,82.8 10.4,83.1 10.5,81.9 C10.6,80.7 11.2,79.9 11.7,78.4 C12.2,76.9 15.1,68.4 15.4,67.4 C15.7,66.4 16.2,64.8 16.6,64.4 C16.6,64.4 17,63.6 18.1,63.6 C19.2,63.6 19.6,64.3 21,64.3 C22.4,64.3 24.2,63.7 24.3,63.8 C24.4,64 22,66.9 20.3,66.7 C18.6,66.5 19,64 18.8,64 C18.6,64 17.6,63.6 17.4,66 C17.2,68.4 19.3,68.3 20,68.1 C20.7,67.9 22.1,67.2 23,66.3 C23.9,65.4 26.3,63.9 26.4,64.2 C26.5,64.5 24.9,66 24.4,66.8 C23.9,67.6 22.4,68.6 22.4,68.9 C22.4,69.2 23.4,68.6 23.9,68.2 C24.4,67.8 27.7,64.1 28.9,63.8 C30.1,63.6 30.9,63.5 30.8,64.3 C30.4,68 23.2,76.2 19.5,78.2 C19.5,78.2 19.2,78.5 19.9,77.2 C20.7,75.9 22.1,72.6 22.2,71.7 C22.3,70.9 22.4,69.8 22.1,69.8 C21.8,69.8 21.8,70.5 21.3,71.9 C20.8,73.3 19,77.7 17.3,79.1 C15.6,80.5 13.9,81.2 13.9,81.6 C13.9,82 14.2,82 15.3,81.6 C16.4,81.2 20.1,79.5 23.6,75.8 C27.2,72.2 29.3,69.2 30.1,67.8 C30.9,66.3 31.5,63.4 32.9,63.4 C33.2,63.2 34,62.5 32.5,66.8 Z" id="Shape" fill="#FFFFFF"></path>
            <path d="M40.8,64.7 C39.5,67.8 37.8,72.2 37.1,73.1 C36.4,74 35,77.3 31,79 C31,79 28.7,79.6 28.7,78.5 C28.7,77.5 29.5,77.6 29.9,76.5 C30.3,75.4 32.7,71.2 33.5,67.5 C34.3,63.9 34.3,64.6 34.4,63 C34.4,63 35.8,62.4 35.8,62.5 C35.8,62.6 35.5,66.4 34.7,69 C33.9,71.5 33,71.7 33.3,73.1 C33.3,73.1 33.5,73.1 33.9,72.5 C34.3,71.9 37.2,63.5 37.3,62.3 C37.3,62.3 41,60.2 41.5,59.6 C41.7,59.6 42.1,61.6 40.8,64.7 Z" id="Shape" fill="#FFFFFF"></path>
            <path d="M41.4,65.5 C41.3,66 40.6,68.5 40.3,69.9 C39.9,71.6 39.8,73.9 39.3,74.1 C38.8,74.3 34.9,77.5 34.6,77.4 C34.2,77.4 34.5,77.2 34.8,77 C35.1,76.8 37.8,73.5 38.3,72.4 C39.5,70.4 41.1,64.8 41.4,64.8 C41.4,64.9 41.5,65 41.4,65.5 Z" id="Shape" fill="#FFFFFF"></path>
            <path d="M15.8,62.2 C15.5,62.4 14.9,63.5 14.9,63.5 C10.9,59.8 10,55 10,55 C9.4,56.4 10.1,57.6 11,59.6 C11.8,61.6 14.8,64.4 14.8,64.4 L14.2,67.4 C13.9,66.3 8.5,60.7 8,53.5 C7.5,46.2 13.4,42.4 13.4,42.4 L13.3,44.4 C8.5,48.6 10,53.8 10,53.8 C11.2,47.1 13.3,45.5 13.3,45.5 L13,48.3 C10.3,50.8 11,53.6 11.4,56.2 C11.8,58.7 15.8,62.2 15.8,62.2 Z" id="Shape" fill="#FFFFFF"></path>
            <path d="M45.3,20.8 C45,20.5 44.4,20.1 43.5,19.7 L43.5,19.7 C43,19.5 42.5,19.3 41.8,19.2 C40.6,18.9 39.2,18.7 37.4,18.9 C37.4,18.9 35.8,19.7 35.6,20 C35.6,20 35.3,20 35.3,19.6 C35.3,19.2 35.3,17.9 34.5,18 C33.7,18.1 34.2,20.1 34.5,20.4 C34.8,20.7 37.9,21.6 37.9,21.6 C37.9,21.6 40.6,22.4 42.3,22.5 C42.3,22.5 44.3,22.8 38,22.6 C38,22.6 38.5,23.6 40.8,23.8 C43,24 44.1,23.6 44.1,23.6 C44.1,23.6 45,23.8 41.4,25.2 C41.4,25.2 39.8,25.4 38.8,24.8 C37.8,24.2 34.2,24.5 33.8,25.3 C33.8,25.3 32.9,26 33.8,26.3 C34.6,26.6 35.1,26.6 35.1,26.7 C35.1,26.8 35.1,26.9 33.6,26.7 C32.2,26.6 30.9,26.2 30.2,26.7 C29.5,27.2 29.2,27.7 29,27.3 C28.8,26.9 28.2,25.7 27.8,25.9 C27.4,26.2 27.5,28 27.5,28 C27.5,28 26.2,26.4 25.8,26.8 C25.3,27.2 26.1,28.3 25.9,28.5 C25.7,28.7 25.6,28.7 25.4,28.5 C25.2,28.3 23.9,27.2 23.2,27.6 C22.4,28 22.7,28.7 22.3,28.8 C21.9,28.9 21.7,28.6 21.2,28.5 C20.7,28.5 18.9,28.8 18,29.5 C17.1,30.2 14.6,32.8 14.5,36.8 C14.4,40.8 16,40.2 15.9,42.8 C15.9,42.8 16.3,43.9 15.9,43.8 C15.5,43.8 15.2,43.3 15.1,42.8 C15.1,42.3 15.1,41.7 14.6,41.8 C14.1,41.9 14.2,42.9 14.2,42.9 C14.2,42.9 14.2,45.6 14.3,46.8 C14.6,49.8 13.8,56.6 13.8,56.6 C13.8,56.6 13.5,57.8 14.2,58.6 C14.8,59.4 19.2,63.1 23.7,62.8 C23.7,62.8 24.1,62.5 23.5,62.3 C23,62.1 21.4,61.5 21.1,61.1 C21.1,61.1 22.6,61.5 23.8,62.1 C23.8,62.1 24.9,62.7 25.1,62.3 C25.3,61.9 24.7,60.5 20.5,60 C20.5,60 20.7,59.5 22.5,60.2 C24.3,60.8 25.2,61.2 25.4,61.6 C25.4,61.6 25.9,62 26.2,61.6 C26.5,61.2 26.2,60.9 25.6,60.6 C25,60.3 21.8,59 20.9,58.8 C20.9,58.8 20.8,58.5 21.4,58.6 C21.9,58.7 25.6,60.3 25.6,60.3 C25.6,60.3 26.2,60.6 26,60.1 C25.8,59.6 24.7,58.7 21.8,57.8 C21.8,57.8 21.6,57.4 22.4,57.6 C23.3,57.8 23.5,58.1 23.7,58 C23.9,57.8 24.1,57.1 21.8,56.9 C19.5,56.7 18.2,57 18,56.8 C17.8,56.6 17.5,56.7 17.7,55.3 C17.8,54 18.2,51.4 18.5,50.5 C18.9,49.6 19.5,47.1 19.5,45.8 C19.5,45.8 20.8,44.5 21.1,43.9 C21.4,43.2 21.7,42 21.9,40.2 C22.1,38.3 23,36.3 24,36.3 C24,36.3 26.1,37.8 27.6,37.8 C29.1,37.8 30.7,37 30.8,36.5 C30.9,36 30.8,32.8 31.1,32.6 C31.3,32.4 31.4,32 31.8,32.3 C32.3,32.7 34.1,34.3 34.7,34.5 C35.3,34.7 36.5,35.1 37.2,34.8 C37.9,34.4 38.1,33.8 38,33 C37.8,32.2 37.2,31 37.1,30.4 C36.9,29.8 36.7,29.3 37.2,28.5 C37.7,27.7 39.4,26.7 39.9,27.1 C40.4,27.5 39.9,27.9 40.2,28.1 C40.5,28.3 41.2,28.2 41.5,28 C41.7,27.8 44.5,25.2 44.5,25.2 C44.5,25.2 46.1,23.7 46.4,22.8 C46.2,22.2 46.1,21.5 45.3,20.8 Z M27.6,29.1 C28.4,29 28.4,28.4 29.3,28.4 C29.9,28.4 29.1,29.8 27.9,29.8 C26.7,29.8 26.1,29.4 26.1,29.4 C26.5,29.1 26.7,29.2 27.6,29.1 Z M21.1,37.8 C20.9,37.9 20.5,37.4 20.7,36.9 C20.9,36.4 20.9,34.3 20.6,33.7 C20.2,33.1 19.8,32.6 19.2,32.9 C19.2,32.9 19.6,36.7 18.7,37.7 C18.7,37.7 18.5,37.7 18.7,37 C18.9,36.4 18.7,34.4 18.7,33.8 C18.7,33.2 18.2,32.1 16.8,34.3 C16.8,34.3 16.4,35.5 16.8,37.3 C16.8,37.3 16.7,38 16.2,37.3 C15.7,36.6 16.4,32.9 16.4,32.9 C16.4,32.9 15.6,32.8 15.9,32.4 C15.9,32.4 16.4,32.6 16.8,32.4 C17.2,32.2 17.8,31.6 18.3,31.8 C18.8,32 18.9,31.7 19,32.2 C19,32.2 19.8,31.8 20.3,32.2 C20.8,32.6 21.4,33 21.4,34.5 C21.5,36.4 21.4,37.7 21.1,37.8 Z M24.3,29.6 C21.4,30.3 21.2,32.4 21.2,32.4 C20.8,32.8 20.3,32.2 21.1,30.7 C21.9,29.3 23.8,28.8 24.4,29 C25,29.3 24.3,29.6 24.3,29.6 Z M32.5,29.1 C34.2,28.9 33.8,29.5 33.8,29.5 C31.6,29.7 24.6,32.4 24.6,32.4 C23.7,31.6 30.8,29.3 32.5,29.1 Z M31.4,31.8 C30.5,32.1 25.5,34.3 25.5,34.3 C25.5,33.1 34.2,30 34.3,30.7 C34.3,31 32.3,31.5 31.4,31.8 Z" id="Shape" fill="#FFFFFF"></path>
            <path d="M34.3,30.7 C34.3,31 32.3,31.4 31.5,31.7 C30.6,32 25.6,34.2 25.6,34.2 C25.5,33.1 34.2,30 34.3,30.7 Z" id="Shape" fill="#535453"></path>
            <path d="M33.8,29.4 C31.6,29.6 24.6,32.3 24.6,32.3 C23.7,31.6 30.8,29.3 32.5,29.1 C34.2,28.8 33.8,29.4 33.8,29.4 Z" id="Shape" fill="#535453"></path>
            <path d="M27.9,29.8 C26.7,29.8 26.1,29.4 26.1,29.4 C26.4,29.1 26.7,29.2 27.5,29.1 C28.3,29 28.3,28.4 29.2,28.4 C29.8,28.3 29,29.7 27.9,29.8 Z" id="Shape" fill="#535453"></path>
            <path d="M24.3,29.6 C21.4,30.3 21.2,32.4 21.2,32.4 C20.8,32.8 20.3,32.2 21.1,30.7 C21.9,29.3 23.8,28.8 24.4,29 C25,29.3 24.3,29.6 24.3,29.6 Z" id="Shape" fill="#535453"></path>
            <path d="M21.5,34.9 C21.5,36.4 21.4,37.7 21.1,37.8 C20.9,37.9 20.5,37.4 20.7,36.9 C20.9,36.4 20.9,34.3 20.6,33.7 C20.2,33.1 19.8,32.6 19.2,32.9 C19.2,32.9 19.6,36.7 18.7,37.7 C18.7,37.7 18.5,37.7 18.7,37 C18.9,36.4 18.7,34.4 18.7,33.8 C18.7,33.2 18.2,32.1 16.8,34.3 C16.8,34.3 16.4,35.5 16.8,37.3 C16.8,37.3 16.7,38 16.2,37.3 C15.7,36.6 16.4,32.9 16.4,32.9 C16.4,32.9 15.6,32.8 15.9,32.4 C15.9,32.4 16.4,32.6 16.8,32.4 C17.2,32.2 17.8,31.6 18.3,31.8 C18.8,32 18.9,31.7 19,32.2 C19,32.2 19.8,31.8 20.3,32.2 C20.9,33 21.5,33.5 21.5,34.9 Z" id="Shape" fill="#535453"></path>
            <path d="M33.5,38 C32.8,38.4 32.3,37.6 31.7,36.4 C31.1,35.2 31.7,34.3 31.7,34.3 C31.8,34.1 32.2,34.8 32.5,35.1 C32.8,35.4 33.9,35.5 34,35.9 C34.3,36.3 34.2,37.6 33.5,38 Z" id="Shape" fill="#FFFFFF"></path>
            <path d="M36.8,40.6 C36,41 35.4,40.1 35,39.5 C34.6,38.9 33.8,37.4 35,36 C36.2,34.6 36.9,36.1 36.9,36.1 C37.1,36.5 37.6,38.2 37.6,38.7 C37.7,39.3 37.7,40.2 36.8,40.6 Z" id="Shape" fill="#FFFFFF"></path>
            <path d="M33.8,40.3 C33.6,41.8 33,42 32.4,42.2 C31.8,42.4 30.7,42.2 30.7,42.2 C30.7,42.2 29.9,40.9 29.5,40.4 C29.1,39.8 29,39.1 29.1,38.8 C29.2,38.5 30.3,37.5 30.3,37.5 C30.8,37 31.5,38.4 32.1,38.5 C32.7,38.4 33.9,39.2 33.8,40.3 Z" id="Shape" fill="#FFFFFF"></path>
            <path d="M30.7,43.2 C30.7,43.2 29,44.2 29.2,47.6 C29.2,47.6 26.1,47.7 26.7,43.5 C26.7,43.5 25.2,42.4 25.9,39.1 C25.9,39.1 27.4,38.9 27.6,39.1 C27.8,39.4 28.3,42.7 30.7,43.2 Z" id="Shape" fill="#FFFFFF"></path>
            <path d="M37.4,45.5 C37.3,46.4 35.5,47.4 34.5,47.6 C33.5,47.9 30.9,48.1 30.9,48.1 C31.3,39.6 36.7,41.5 36.7,41.5 C37.3,41.8 37.4,45.5 37.4,45.5 Z" id="Shape" fill="#FFFFFF"></path>
            <path d="M38.6,48.2 C38.5,48.6 36.7,50.1 36.6,49.9 C36.5,49.6 36.8,49 36.8,49 C37.8,47.9 37.3,47.5 37.3,47.5 C37,48.3 34.5,50.3 34.1,50.4 C33.8,50.6 32.1,51.1 31.9,50.8 C31.7,50.5 32.4,49.7 33.1,49.4 C33.8,49 33.4,49.1 33.4,49.1 C30.1,49.7 30.3,51.4 30.3,51.4 C27.3,51.7 25.4,51.9 26.4,50.7 C27.4,49.5 30.8,48.6 31,48.5 C36,47.9 36.1,47.2 36.8,46.8 C37.5,46.4 38,46.4 38,46.4 C38.8,46.3 38.6,47.9 38.6,48.2 Z" id="Shape" fill="#FFFFFF"></path>
            <path d="M42.6,57.8 C42.2,58.7 41.7,58.5 41.4,58.6 C41.1,58.7 41,57.6 40.9,56.2 C40.8,54.8 40,52.6 40,52.6 C39.5,53.2 41.5,59 40.6,59.7 C39.7,60.3 39.2,55 38.9,53.6 C38.6,52.2 38.4,52.6 38.4,52.6 C38.6,53.3 39,60.1 38.8,60.7 C38.7,61.3 37.8,61.7 36.9,61.8 C36.1,61.9 36,60.1 36.2,57.9 C36.4,55.7 35.6,52.8 35.5,52.6 C35.3,52.4 35.4,53 35.3,53.8 C35.3,54.5 35.7,58.7 35.7,59.8 C35.7,60.9 35.4,61.9 35,62.1 C34.6,62.3 32.3,62.8 31.6,62.8 C30.9,62.8 30.7,62.4 30.6,61.8 C30.5,61.2 31,58.6 31.4,57.1 C31.9,55.6 31.8,54 31.6,53.8 C31.4,53.6 30.5,59 30.2,60.1 C29.8,61.2 28.6,63 27,63.2 C25.4,63.4 24.8,63 24.8,63 C27.1,62.7 26.7,61.7 26.7,61.7 L26.2,61 L26.2,60 C26.2,59.5 24.1,58.6 24.1,58.6 C24.1,54.5 26.8,52.3 26.8,52.3 C26.8,52.3 29.4,52.7 32.5,52.1 C35.5,51.5 36.9,50.4 37.8,50 C38.7,49.6 39.2,49.5 39.4,49.6 C39.6,49.7 41.4,52.6 42,53.7 C42.4,54.5 43,56.9 42.6,57.8 Z" id="Shape" fill="#FFFFFF"></path>
            <path d="M45.4,58.1 C45.4,58.1 44.7,56.8 44.8,56.2 C44.9,55.6 45.2,55.5 45.2,55.5 C45.2,55.5 45.5,56.3 45.6,57.1 C45.7,57.9 45.4,58.1 45.4,58.1 Z" id="Shape" fill="#FFFFFF"></path>
            <path d="M47.6,52.3 C47.5,53.1 46.1,56.6 46.1,56.6 C45.3,55.1 45.9,53.9 45.9,53.9 C46.7,51.7 46.7,50.4 46.5,50 C46.4,49.7 46.4,50.7 45.9,52.7 C45.4,54.7 45,55.3 44.6,55.4 C44.1,55.4 44.6,53.4 44.6,53.4 C45.7,49.9 45.2,49.5 44.9,46.6 C44.7,43.7 42.4,42.9 42,42.9 C41.6,42.9 41.5,42.3 42,41.8 C42.5,41.3 43.5,41.1 45.9,44.7 C48.3,48.3 47.7,51.5 47.6,52.3 Z" id="Shape" fill="#FFFFFF"></path>
            <path d="M41.7,39.5 C41.7,39.5 41,40.6 40.9,40.6 C40.7,40.6 40.9,39.7 41.2,39.4 C41.5,39 42,38.9 41.7,39.5 Z" id="Shape" fill="#FFFFFF"></path>
            <path d="M41.5,41 C41.2,40.7 42,40.2 42,40.2 C42.4,40.1 41.8,41.3 41.5,41 Z" id="Shape" fill="#FFFFFF"></path>
            <path d="M41.3,42.2 C41,42.9 40.8,42.7 40.6,42.3 C40.4,41.9 41.3,41.3 41.3,41.3 C41.5,41.1 41.6,41.5 41.3,42.2 Z" id="Shape" fill="#FFFFFF"></path>
            <path d="M40.6,41.3 C40.6,41.3 40,42.6 39.9,42.6 C39.8,42.5 40.2,41.1 40.6,41.3 Z" id="Shape" fill="#FFFFFF"></path>
            <path d="M39.5,41.5 C39.5,41.5 39.2,42.8 39,42.5 C38.8,42.4 39.5,41.3 39.5,41.5 Z" id="Shape" fill="#FFFFFF"></path>
            <path d="M48.5,29.8 C48.1,31.9 47.9,36.6 43.8,39.8 C43.8,39.8 42,38.6 40.8,38.4 C40.8,38.4 40.6,38.2 41.2,37.9 C41.8,37.5 44.3,34.9 45.1,31.7 C45.9,28.5 44.6,27 43.8,27 C43.8,27 44.6,25.7 44.8,25.6 C45,25.6 45.8,25.7 46,27.2 C46.3,28.7 46.3,35.7 42.9,38.7 C42.9,38.7 42.9,39.1 43.4,38.7 C43.9,38.3 45.1,37.7 46.1,34.8 C47.1,31.9 47.5,26.6 45.5,25 C45.5,25 45.6,24.3 46.2,24.6 C46.8,24.8 48.9,27.6 48.5,29.8 Z" id="Shape" fill="#FFFFFF"></path>
            <path d="M34.9,22.2 C34.5,23 33.3,23.6 32.4,23.7 C31.6,23.8 31.1,22.9 31.2,22.6 C31.3,22.2 31.6,21.1 31.9,21.4 C32.2,21.7 32.2,22.1 32.3,22.5 C32.4,22.9 32.6,23.6 33.1,23.1 C34.2,22.2 34.1,20.7 34.4,20.9 C34.4,21 35.2,21.4 34.9,22.2 Z" id="Shape" fill="#FFFFFF"></path>
            <path d="M30.7,20.2 L32.7,20.2 C33,20.7 31.1,21.2 30.7,20.2 Z" id="Shape" fill="#FFFFFF"></path>
            <path d="M32.8,19.3 C31.5,19.2 30.4,19.4 30.4,18.9 C30.4,18.4 30.9,18.7 30.9,18.7 C33.5,18.4 33.3,19.2 32.8,19.3 Z" id="Shape" fill="#FFFFFF"></path>
            <path d="M32.8,17.8 C32.6,18.1 31,18 30.7,17.6 C30.4,17.2 30.9,17.2 30.9,17.2 C32.9,16.8 33,17.5 32.8,17.8 Z" id="Shape" fill="#FFFFFF"></path>
            <path d="M31.2,22.1 L29.9,22 C29.9,22 29.9,22.6 29.7,22.7 C29.5,22.9 29.7,23.9 28.9,24.1 C28.9,24.1 28.5,23.9 28.9,23.6 C29.3,23.3 29.3,23 29.4,22.4 C29.5,21.8 29.4,21.7 29.9,21.7 C29.9,21.7 29.4,21.1 29.6,20.6 C29.8,20.1 29.7,20.2 30.1,20.1 C29.8,20.1 28.8,18.8 30,18.7 C30,18.7 29.5,19.6 30.5,20 C30.4,20 30.2,20 30.1,20.2 C30,20.4 30.2,21.4 30.3,21.6 C30.3,21.6 30.8,21.8 31.1,21.8 L31.1,22.1 L31.2,22.1 Z" id="Shape" fill="#FFFFFF"></path>
            <path d="M28.9,17.9 C28.9,18.4 28.3,21.8 28.3,21.8 C26.8,22 27.4,23.4 27.2,24.3 C27,25.2 26.4,25.3 26.4,25.3 C26.5,22.9 25.9,22 25.4,21.5 C24.9,21 24.1,20.8 24.1,20.8 C23.6,20.9 24.6,21.3 24.7,21.5 C24.8,21.7 24.7,22 24.5,22.1 C24.3,22.2 21.2,22.1 21.1,21.9 C21,21.7 21.8,20.6 21.9,20.4 C22,20.1 21.8,19.3 22.1,19.2 C22.4,19.1 22.6,19.5 22.9,20.1 C23.2,20.7 23.4,20.5 23.4,20.2 C23.4,19.9 23.5,19.8 23.5,19.8 C24.3,20.5 25.4,20.3 26,20.1 C26.6,19.9 26.8,19.7 26.8,19.6 C26.8,19.5 26.5,19.6 26.4,19.7 C26.3,19.7 25.5,19.9 25.4,19.8 C25.3,19.7 25.3,19.6 26.2,19.5 C27.2,19.3 26.8,18.6 26.8,18.6 C26.5,18.6 25.7,18.9 25.2,19 C24.7,19.1 24.5,19.1 24.5,18.9 C24.5,18.7 26.8,18.1 27.3,18 C27.8,17.9 27.7,17.7 27.7,17.7 C26.6,17.4 25.9,17.8 25.3,18.1 C24.7,18.3 24.3,18.7 23.9,18.6 C23.5,18.6 23.7,18.3 23.7,18.3 C25.1,17.6 25.3,16.9 25.7,16.3 C26,15.7 26.5,14.6 26.1,14.3 C25.7,14 25.5,15.3 25.5,15.6 C25.5,15.9 25.1,17.2 24,17.7 C22.9,18.3 22.6,18 22.1,18 C21.6,18 20.8,16.9 20.6,16.4 C20.4,15.9 20.4,14.6 20.4,14.6 C20.1,14.4 19.9,14.7 19.9,15.6 C19.8,16.5 20.9,17.6 21.1,18.1 C21.3,18.6 21,18.4 20.9,18.3 C20.8,18.3 20.4,17.5 19.8,17.5 C19.2,17.4 18.7,17.5 18.7,17.5 C18.7,17.5 18.1,14.9 19.9,13.9 C21.7,12.9 22.1,13.5 22.1,13.5 C21.8,14.1 21.9,16.6 21.9,17.1 C21.9,17.6 22.1,17.5 22.1,17.5 C22.8,13.6 23.4,13.6 24.3,13.2 C25.2,12.9 26.7,14.1 27.6,14.7 C28.6,15.5 28.9,17.4 28.9,17.9 Z" id="Shape" fill="#FFFFFF"></path>
            <path d="M24.3,22.7 C23.3,22.2 22.6,23 22.6,23 C22.1,23.1 22.1,23 22,22.7 C21.8,22.4 21.2,22.2 20.7,22.8 C20.2,23.4 20.5,26.1 20.8,26.6 C21.1,27.1 22.2,27.2 22.4,27 C22.6,26.8 22.8,26.8 22.8,26.8 C23.6,27.2 25.3,27.2 25.6,25.6 C25.9,24 25.3,23.2 24.3,22.7 Z M24,25.1 C23.5,24.9 23.1,24.5 22.4,24.6 C21.7,24.7 22,24.9 21.7,25 C21.7,25 20.9,25.3 21,24.9 C21,24.5 21.6,24.3 22.5,24.4 C23.4,24.4 24.1,24.5 24.6,25 C24.6,24.9 24.5,25.2 24,25.1 Z M22.6,23.8 C22.3,23.8 21,24.3 20.8,24 C20.8,24 21,23.3 22.5,23.4 C24,23.5 24.5,23.6 24.7,24 C24.9,24.3 23,23.8 22.6,23.8 Z" id="Shape" fill="#FFFFFF"></path>
            <path d="M24.6,24.9 C24.6,24.9 24.5,25.3 24,25.1 C23.5,24.9 23.1,24.5 22.4,24.6 C21.7,24.7 22,24.9 21.7,25 C21.7,25 20.9,25.3 21,24.9 C21,24.5 21.6,24.3 22.5,24.4 C23.5,24.3 24.2,24.4 24.6,24.9 Z" id="Shape" fill="#535453"></path>
            <path d="M24.8,23.9 C24.9,24.2 23,23.8 22.7,23.7 C22.4,23.7 21.1,24.2 20.9,23.9 C20.9,23.9 21.1,23.2 22.6,23.3 C24,23.5 24.6,23.6 24.8,23.9 Z" id="Shape" fill="#535453"></path>
            <path d="M21.4,20.6 C21.1,20.8 20.8,21.5 20.3,22.1 C19.7,22.6 19.7,23.7 19.7,23.7 C19.3,23.9 19.4,23 19.2,22.4 C19.1,21.8 18.6,22 18.6,20.6 C18.6,19.2 18.9,18.4 19.3,18.2 C19.7,18 20.5,18.8 20.5,18.9 C20.5,19 19.5,18.9 19.5,18.9 C19.5,18.9 20.2,19.6 20.3,19.7 C20.4,19.8 20.4,20.4 20.1,20 C19.8,19.6 19.4,19.5 19.2,19.6 C19,19.7 20,20.8 20.5,20.9 C21,21 20.7,20.7 21.1,20.5 C21.5,20.3 21.4,20.6 21.4,20.6 Z" id="Shape" fill="#FFFFFF"></path>
            <path d="M28.2,13.9 C28.1,14.2 27.6,14.1 27.2,14.1 C26.8,14.1 26.6,13.6 25.4,13.2 C24.2,12.8 20.7,13.2 20.7,13.2 C20.3,13.1 20,12.6 20.6,12.2 C21.1,11.7 24.3,11.7 25.6,12 C26.9,12.2 28.3,13.6 28.2,13.9 Z" id="Shape" fill="#FFFFFF"></path>
            <path d="M21.3,11.8 C21.3,11.8 20.1,12.1 20.1,11.6 C20.1,11.1 20.1,9.6 21.2,9.4 L21.3,11.8 Z" id="Shape" fill="#FFFFFF"></path>
            <path d="M23.1,8.9 L23,11.6 L21.5,11.6 C21.5,11.6 21.1,9.6 21.8,8.7 C22.7,7.8 23.1,8.9 23.1,8.9 Z" id="Shape" fill="#FFFFFF"></path>
            <path d="M25.7,11.1 C25.6,11.3 25.4,11.6 25.4,11.6 L23.4,11.5 C23.4,11.1 23.5,9.2 23.5,9.2 C24.8,7.1 25.7,8.7 25.7,8.7 C25.7,8.7 25.8,10.8 25.7,11.1 Z" id="Shape" fill="#FFFFFF"></path>
            <path d="M27.4,11.5 C27.3,12 27,12.2 26.9,12.3 C26.8,12.4 25.8,11.6 25.8,11.6 C26,11.3 25.9,10.6 26.2,9.8 C26.5,9.1 26.9,8.8 27.3,9 C27.6,9.2 27.5,11 27.4,11.5 Z" id="Shape" fill="#FFFFFF"></path>
            <path d="M28.6,11.9 C28.5,12.4 27.9,12.7 27.7,12.6 C27.5,12.5 27.7,11.7 27.7,11.7 C28,9.8 28.3,9.7 28.8,9.7 C29.4,9.8 28.7,11.5 28.6,11.9 Z" id="Shape" fill="#FFFFFF"></path>
            <path d="M39.5,8.7 C37.2,5.8 33.6,1.2 26,0.7 C18.3,0.2 10.6,4 7.9,10.5 C6.6,13.6 6.3,16.5 6.6,19.2 L6.6,19.3 C7,22.1 8.2,24.5 10,26.5 C13.4,30.2 15.5,30.9 15.5,30.9 L16.3,30.1 C16.3,30.1 9.5,26.1 8.5,21.7 C7.4,17.3 7.5,11.9 11.9,7.4 C11.9,7.4 15.8,3.6 17.6,3.7 L17.6,4.1 C17.6,4.1 10.3,7.8 9.4,13.1 C8.5,18.4 8.8,21 11,24.4 C13.2,27.8 17.1,29.6 17.1,29.6 C17.1,29.6 19.6,28.1 20.9,28.1 C20.9,28.1 21.2,27.9 20.7,27.8 C20.2,27.7 14.2,26.3 11.6,20.7 C11.6,20.7 11.5,19.8 11.8,19.9 C12.2,20 12.5,20.4 12.6,20.7 C12.7,21 16.4,26.2 20,26.7 C20,26.7 18.2,21.9 18.1,21.1 C18,20.3 17.8,19.4 18.3,19.2 C18.3,19.2 18,18.4 18,17.4 C17.9,16.4 17.9,13.9 20.1,13.7 C20.1,13.7 19.3,12 19.8,10.7 C20.3,9.4 21.4,8.1 22.2,8.1 C23,8.1 23.5,8.4 23.5,8.4 C23.5,8.4 25.1,6.7 26.3,8.8 C26.3,8.8 27.1,8.3 27.7,8.7 C28.3,9 28.1,9.6 28.1,9.7 C28.2,9.7 28.9,9.5 29.3,9.8 C29.8,10.1 29.3,11.8 29.3,11.8 C29.3,11.8 30.3,11.8 30.6,12.4 C30.9,13.1 31.5,14.1 31.4,16.1 C31.4,16.1 30.9,16.1 30.8,15.7 C30.7,15.2 30.8,12.8 29,12.4 C29,12.4 28.7,12.1 28.7,13.9 C28.7,13.9 29.3,13.7 29.6,14.2 C29.8,14.7 30.3,15 30.4,16 C30.5,17 30.2,17.1 30.9,17 C31.6,16.9 33,16.6 32.9,16.5 C32.9,16.3 33.3,14.6 32.8,13.2 C32.3,11.7 30.6,10 30.6,10 C30.6,10 30.5,9.6 30.8,9.6 C31.2,9.7 34.5,11.7 33.8,16.6 C33.8,16.6 33.9,16.8 34.4,16.8 C34.9,16.8 36.2,18.4 36.5,18.5 C36.8,18.6 39,18.8 39.1,18.7 C39.1,18.7 39.5,14.7 39.4,13.9 C39.4,13.1 39.2,9.3 34.1,5.7 C34.1,5.7 33.9,5.1 34.4,5.2 C34.9,5.3 37.4,7.4 38.4,8.9 C39.4,10.4 40.2,11.9 40.3,13.4 C40.3,14.9 40,18.9 40,18.9 L42,19.3 L42.1,19.3 L42.3,17.1 C42,16.7 41.8,11.5 39.5,8.7 Z M18.3,22.7 C18.4,22.9 17.3,22.8 17.3,22.8 C17.3,22.8 14.5,21.6 14.1,16.3 C13.7,11 15.9,9.7 16.2,9.7 C16.6,9.8 16.4,10.1 16.4,10.1 C16.4,10.1 14.9,10.7 14.6,15.6 C14.5,20.6 18.3,22.7 18.3,22.7 Z M24.4,7.4 C20.6,7.4 19.3,8.6 19.3,8.6 C18.8,8.7 18.6,8.4 18.6,8.4 C19.9,6.8 23.5,6.7 24.1,6.9 C24.8,7.1 24.4,7.4 24.4,7.4 Z M32.9,4.8 C28.7,0.9 20.1,2.9 20.1,2.9 C19.7,2.8 20.1,2.5 20.1,2.5 C28,0.3 33.2,4 33.3,4.3 C33.3,4.7 32.9,4.8 32.9,4.8 Z" id="Shape" fill="#FFFFFF"></path>
            <path d="M24.4,7.4 C20.6,7.4 19.3,8.6 19.3,8.6 C18.8,8.7 18.6,8.4 18.6,8.4 C19.9,6.8 23.5,6.7 24.1,6.9 C24.8,7.1 24.4,7.4 24.4,7.4 Z" id="Shape" fill="#535453"></path>
            <path d="M33.3,4.3 C33.4,4.6 32.9,4.7 32.9,4.7 C28.7,0.8 20.1,2.8 20.1,2.8 C19.7,2.7 20.1,2.4 20.1,2.4 C28,0.3 33.2,4 33.3,4.3 Z" id="Shape" fill="#535453"></path>
            <path d="M18.3,22.7 C18.4,22.9 17.3,22.8 17.3,22.8 C17.3,22.8 14.5,21.6 14.1,16.3 C13.7,11 15.9,9.7 16.2,9.7 C16.6,9.8 16.4,10.1 16.4,10.1 C16.4,10.1 14.9,10.7 14.6,15.6 C14.5,20.6 18.3,22.7 18.3,22.7 Z" id="Shape" fill="#535453"></path>
        </g>
    </g>
</svg>